<svg clip-rule="evenodd" fill-rule="evenodd" viewBox="0 0 560 400" xmlns="http://www.w3.org/2000/svg"><g transform="matrix(1.93674 0 0 1.93674 492.47 -448.82)"><g fill-rule="nonzero"><path d="m143.57 138.831h50.072l2.292-.022h5.093c2.436 0 6.445-.122 12.103-.354l2.115-.089c-.31 4.385-.366 6.112-.377 8.438l-.033 6.732-.022 6.378v35.621c0 22.434-5.082 30.052-29.277 41.999-1.074.532-13.409 6.688-14.693 7.375l-1.207.653-1.24.643-1.229-.643-1.241-.653c-5.082-2.658-10.242-5.005-14.25-6.976-22.168-10.873-29.266-18.591-29.266-42.398v-35.621l-.066-6.378-.022-6.732c-.022-4.064-.067-5.382-.388-8.438l2.115.089c5.57.221 9.722.354 12.136.354h5.06z" fill="#211e1e" transform="matrix(.352778 0 0 .352778 -245.66 267.394)"/><path d="m168.396 244.023 9.533-4.673.244-.088-.066-.211v-43.848l-.089-.266.299.056h34.492l.299.088-.089-.376v-18.592l.089-.299-.299.089h-34.492l-.299.055.089-.299v-34.879l.066-.299-.266.089h-18.89l-.299-.089.089.299v34.879l.066.299-.277-.055h-34.226l-.299-.089.089.299v18.769l-.089.199.299-.088h34.226l.277-.056-.066.355v43.671l-.089.354.233.067z" fill="#fff" transform="matrix(.352778 0 0 .352778 -245.66 267.394)"/><path d="m124.525 140.57-.454-.089.089.332v34.913l-.089.266.421-.089h34.082l.288.089-.055-.299v-34.968l.055-.244-.288.089z" fill="#ee2e4f" transform="matrix(.352778 0 0 .352778 -245.66 267.394)"/><path d="m-182.699 316.984-.148-.031.019.117v12.316l-.019.094.137-.031h12.117l.113.031-.031-.106v-12.335l.031-.086-.113.031z" fill="#ee2e4f"/><path d="m158.718 195.004h-34.437l-.21-.089.089.233v2.081c0 19.167 6.4 28.491 26.098 38.013l6.223 3.012 2.171 1.008.177.21-.022-.299v-43.992l.066-.266z" fill="#ee2e4f" transform="matrix(.352778 0 0 .352778 -245.66 267.394)"/><path d="m-182.765 336.187-.082-.031.019.07v15.5l-.019.117.082-.094.695-.316c9.434-4.442 11.559-7.086 11.559-14.399v-.777l.031-.105-.105.031-12.18.003" fill="#ee2e4f"/><g fill="#211e1e"><path d="m-199.882 330.058c.031.035.058.066.074.082.039.047.066.078.082.094.016.017.047.047.098.098.015.019.047.046.082.081-.028.023-.047.04-.051.044l-.106.093-.086.094-.031.035v.098c0 .852.223 1.43.696 1.813l.082.07-.082.055-.098-.009-.199-.023-.176-.031-.106-.02-.105.758h-.148l-.106-.758-.105.02c-.09.02-.145.031-.168.031l-.207.023-.098.009c-.043 0-.078-.017-.078-.032 0-.019.015-.043.047-.066l.156-.121c.133-.101.219-.223.371-.535.066-.141.105-.262.105-.348 0-.223.036-.398.075-.398l.019-.391.012-.144-.043-.035-.086-.094-.106-.094-.039-.043c.036-.035.063-.063.082-.082.145-.145.161-.16.243-.274"/><path d="m-195.898 330.058c.082.113.094.129.242.274.016.019.047.046.082.081l-.043.044-.105.093-.082.094-.051.035.02.145.019.391c.031.554.34 1.199.664 1.375.055.031.09.058.09.07 0 .028-.023.051-.051.051l-.136-.003-.2-.023-.179-.031-.102-.02-.105.758h-.137l-.106-.758-.105.02-.18.031-.199.023-.094.008-.015.003c-.043 0-.071-.017-.071-.035 0-.02.016-.047.043-.066l.157-.121c.14-.106.175-.161.371-.536.074-.148.113-.265.113-.347 0-.223.031-.399.063-.399l.023-.39.008-.145c-.012-.017-.024-.028-.031-.035-.055-.055-.086-.086-.094-.094l-.105-.094-.04-.043c.036-.035.063-.062.083-.082.05-.05.082-.082.093-.097.016-.017.047-.047.086-.094.016-.017.039-.047.074-.082"/><path d="m-197.886 332.39.074.086.074.094c.016.022.047.054.094.094l.094.082-.051.043-.094.097-.097.082-.032.043v.098c0 .875.211 1.418.696 1.812l.082.071-.082.058-.094-.011-.203-.02-.176-.035-.105-.02-.106.758h-.144l-.11-.758-.105.02-.176.035-.199.02-.098.011h-.008c-.043 0-.074-.017-.074-.035 0-.017.019-.039.051-.066l.16-.121c.336-.258.566-.961.566-1.719v-.097l-.031-.043-.094-.082-.097-.098-.051-.043c.16-.137.238-.219.336-.356"/><path d="m-193.89 332.39c.098.137.176.219.336.356l-.055.043-.094.097-.093.082-.032.043-.004.098c0 .57.168 1.258.36 1.48l.211.239c.015.02.054.051.113.094l.098.07-.086.059-.094-.012-.199-.02-.18-.035-.105-.02-.106.758h-.144l-.106-.758-.105.02-.18.035-.199.02-.094.012h-.012c-.039 0-.074-.017-.074-.036s.02-.043.047-.066l.152-.121c.332-.262.579-.965.579-1.719v-.097l-.032-.043-.093-.082-.094-.098-.055-.043c.043-.035.074-.063.098-.082.043-.039.074-.07.094-.094l.074-.094z"/><path d="m-191.894 330.058c.082.113.094.129.238.274.02.019.051.046.086.081l-.043.044-.105.093-.082.094-.043.035.011.145.02.391c.031.543.348 1.207.664 1.375.055.031.086.058.086.07 0 .028-.016.051-.039.051l-.133-.003-.211-.023c-.043-.003-.101-.011-.179-.031l-.094-.02-.102.758h-.148l-.106-.758-.109.028-.176.023-.199.023-.094.008-.015.003c-.04 0-.071-.017-.071-.035 0-.017.02-.043.047-.066l.156-.121c.137-.11.184-.176.368-.536.074-.148.113-.269.113-.347 0-.223.031-.399.062-.399l.024-.39.008-.145-.031-.035-.094-.094c-.047-.047-.078-.078-.094-.094-.008-.008-.027-.022-.055-.043.039-.035.067-.062.086-.082.051-.05.082-.082.094-.097.02-.017.047-.047.086-.094.016-.017.039-.047.074-.082"/><path d="m-180.558 330.038.074.094.074.082c.051.059.082.094.094.106.02.02.051.046.094.086l-.051.039-.094.097-.097.082-.032.043v.09c0 .848.286 1.586.696 1.813.062.035.09.062.09.089l-.004.017-.086.02h-.094c-.125 0-.344-.039-.484-.082l-.106.754h-.148l-.102-.754c-.148.047-.363.082-.484.082h-.094c-.063 0-.09-.011-.09-.035 0-.031.027-.059.09-.09.402-.211.691-.968.691-1.812v-.09l-.031-.043-.094-.082-.093-.098-.055-.039c.043-.039.078-.066.094-.086.015-.011.047-.046.097-.105l.071-.082.074-.094"/><path d="m-176.554 330.038.074.094.086.082.094.106.082.086-.051.039-.094.097-.097.082-.032.043v.09c0 .836.289 1.59.696 1.813.062.035.09.062.09.089l-.004.017-.086.02h-.094c-.125 0-.344-.039-.484-.082l-.106.754h-.148l-.102-.754c-.172.055-.359.082-.527.082-.114 0-.137-.008-.137-.043 0-.028.023-.051.094-.082.086-.039.238-.195.328-.336.164-.265.262-.496.262-.632 0-.227.035-.411.074-.411l.019-.386.012-.137c-.02-.02-.031-.031-.043-.043-.133-.133-.145-.145-.242-.219l.094-.086.097-.105.082-.082.063-.094"/><path d="m-178.55 332.371c.035.035.058.062.074.081.039.047.07.079.086.098.012.012.039.047.086.098.019.02.055.039.09.078l-.051.043-.094.106-.097.081-.032.044.012.136.019.391c.032.574.333 1.195.665 1.375.062.035.089.062.089.094l-.008.011-.082.02h-.093c-.125 0-.344-.035-.485-.082l-.105.754h-.149l-.105-.754c-.141.051-.348.086-.527.086-.106 0-.133-.012-.133-.051 0-.028.027-.051.093-.078.083-.035.243-.2.329-.336.171-.281.273-.516.273-.629 0-.227.027-.41.063-.41l.019-.391.012-.136-.043-.044-.086-.081-.106-.106-.039-.043c.035-.035.067-.066.082-.082.149-.145.16-.16.242-.273"/><path d="m-174.515 332.371c.035.035.059.062.074.081.039.047.07.079.086.098l.094.094c.019.017.047.043.082.082-.016.02-.031.035-.039.043-.063.059-.094.094-.106.106-.058.05-.09.078-.097.081-.004.009-.016.02-.032.044l.012.136.02.391c.031.574.332 1.195.664 1.375.062.035.09.062.09.094l-.008.011-.082.02h-.094c-.125 0-.344-.035-.485-.082l-.105.754h-.137l-.117-.754c-.141.051-.348.086-.523.086-.11 0-.137-.012-.137-.051 0-.028.027-.051.094-.078.082-.035.242-.2.328-.336.168-.281.273-.516.273-.629 0-.227.027-.41.063-.41l.019-.391.012-.136-.043-.044-.086-.081-.106-.106-.039-.043c.036-.035.067-.066.082-.082.149-.145.161-.16.243-.273"/><path d="m-172.519 330.038.074.094.086.082.094.106.082.086-.051.039-.094.097-.097.082-.027.043v.09c0 .836.285 1.59.691 1.813.062.035.09.062.09.089l-.004.017-.086.02h-.094c-.125 0-.344-.039-.484-.082l-.106.754h-.148l-.102-.754c-.172.055-.359.082-.527.082-.113 0-.137-.008-.137-.043 0-.028.024-.051.094-.082.086-.039.238-.195.328-.336.164-.265.262-.496.262-.632 0-.227.035-.411.074-.411l.02-.386.011-.137c-.019-.02-.031-.031-.043-.043-.047-.047-.074-.074-.082-.082l-.105-.098-.043-.039.082-.086.097-.105.082-.082.063-.094"/><path d="m-188.07 340.894c.082.109.094.129.242.273.016.018.047.044.082.082l-.039.044-.109.093-.082.094-.043.043.012.137.019.39c.02.34.164.785.336 1.039.117.168.246.301.328.336.071.031.094.051.094.086s-.024.039-.148.039c-.164 0-.379-.035-.516-.082l-.102.754h-.148l-.106-.754c-.14.043-.359.082-.484.082h-.094c-.062 0-.086-.011-.086-.035 0-.031.024-.059.086-.09.102-.055.246-.199.325-.336.187-.308.273-.515.273-.629.004-.23.031-.41.066-.41l.02-.39.012-.137-.032-.043-.097-.094-.094-.093-.051-.044c.035-.039.063-.066.082-.082.051-.05.082-.081.094-.097.02-.017.047-.047.086-.094.016-.02.039-.047.074-.082"/><path d="m-184.32 340.894c.082.109.098.129.242.273.02.018.047.044.086.082l-.043.044-.105.093-.086.094-.039.043.008.137.023.39c.02.34.161.785.336 1.039.114.168.243.301.325.336.07.031.097.051.097.086s-.027.039-.148.039c-.164 0-.379-.035-.516-.082l-.105.754h-.149l-.105-.754c-.141.043-.36.082-.481.082h-.097c-.059 0-.086-.011-.086-.035 0-.031.027-.059.086-.09.105-.055.246-.199.328-.336.183-.308.273-.515.273-.629 0-.23.027-.41.063-.41l.019-.39.012-.137-.031-.043-.188-.187-.055-.044c.039-.039.067-.066.086-.082.051-.05.082-.081.094-.097.016-.017.043-.047.082-.094.02-.02.043-.047.074-.082"/><path d="m-186.23 344.296.047.114.098.066.097.105.082.082-.043.043-.105.094c-.008.009-.035.039-.082.086-.012.009-.024.023-.043.043l.011.133.02.391c.031.57.352 1.234.664 1.375.07.035.094.055.094.086l-.012.02-.074.031-.094-.009-.211-.022c-.043-.003-.101-.012-.175-.032l-.098-.019-.113.757h-.137l-.106-.757-.105.019-.18.032-.199.022-.094.009-.011.003c-.047 0-.075-.02-.075-.051s.024-.055.086-.09c.102-.055.246-.199.325-.332.187-.313.273-.516.273-.633 0-.226.031-.41.063-.41l.023-.391.012-.133-.035-.043-.094-.086-.094-.093-.055-.044.086-.081.094-.106.086-.086.074-.094"/><path d="m-188.093 347.765.074.094.086.086.094.105.07.098-.039.028-.094.094-.094.082-.031.043.008.137.024.39c.031.575.328 1.196.66 1.375.062.036.09.063.09.094l-.004.012-.086.019h-.094c-.086 0-.234-.019-.484-.07l-.106.746h-.144l-.106-.746c-.222.051-.39.074-.527.074-.11 0-.133-.011-.133-.05 0-.029.024-.047.09-.079.086-.035.242-.199.328-.336.172-.281.273-.511.273-.628 0-.227.028-.411.063-.411l.019-.39.012-.137c-.019-.017-.031-.031-.043-.043-.047-.043-.074-.074-.082-.082l-.105-.094-.043-.043.086-.082.093-.105.082-.086.063-.094"/><path d="m-184.32 347.765.063.094.086.086.078.117.101.07-.043.043-.105.094c-.008.009-.039.039-.086.082-.008.011-.02.028-.039.043l.008.137.023.39c.02.344.161.785.336 1.039.114.168.243.301.325.336.07.031.097.055.097.086 0 .035-.027.043-.14.043-.137 0-.301-.022-.524-.074l-.105.746h-.149l-.105-.746c-.246.051-.399.07-.481.07h-.097c-.059 0-.086-.008-.086-.035 0-.028.027-.059.086-.09.105-.05.246-.199.328-.336.183-.308.273-.511.273-.629 0-.226.027-.41.063-.41l.019-.39.012-.137-.031-.043-.094-.082-.094-.094-.055-.043.086-.082.094-.105.082-.086z"/><path d="m-186.23 337.468.063.094.082.082.097.105.082.086-.043.039-.105.098c-.008.008-.035.035-.082.082-.012.011-.024.022-.043.043l.011.137.02.386c.031.571.359 1.25.664 1.379.067.028.09.051.09.078 0 .039-.024.047-.133.047-.137 0-.305-.023-.527-.07l-.113.754h-.137l-.106-.754c-.25.047-.398.07-.484.07h-.094c-.062 0-.09-.011-.09-.035 0-.031.028-.059.09-.09.102-.055.246-.199.324-.336.188-.308.274-.512.274-.633 0-.226.031-.41.062-.41l.024-.387.012-.136-.036-.043-.093-.082-.094-.098-.055-.039.086-.086.094-.105.086-.082z"/><path d="m-188.124 318.288c.035.036.058.067.074.082.039.047.066.079.086.098.011.011.043.043.093.094l.082.082-.039.043-.105.094c-.012.008-.039.039-.094.093-.008.009-.019.02-.031.036l.008.144.023.379c.02.367.184.875.336 1.051l.207.242c.012.011.051.043.118.094l.089.07-.089.055-.094-.009-.199-.022-.18-.032-.106-.019-.113.722-.129.035-.105-.757-.102.019-.179.032-.204.022-.109.012c-.039 0-.066-.017-.066-.036s.015-.043.043-.066c.008-.008.062-.047.156-.121.137-.101.176-.16.367-.535.078-.149.117-.266.117-.348 0-.226.027-.41.063-.41l.019-.379.012-.144-.043-.036-.082-.093-.106-.094-.043-.043c.039-.035.067-.063.082-.082.149-.145.161-.16.243-.274"/><path d="m-184.32 318.288c.082.114.098.129.242.274.02.02.047.047.086.082l-.043.043-.105.094-.086.094-.039.035.008.144.023.379c.032.555.344 1.219.661 1.387.054.031.089.055.089.07 0 .029-.019.051-.043.051l-.129-.003-.21-.022c-.047-.003-.106-.012-.18-.032l-.094-.019-.105.757h-.149l-.105-.757-.114-.012-.168.063-.199.022-.097.009-.012.003c-.039 0-.07-.017-.07-.035 0-.02.015-.043.047-.067l.152-.121c.141-.109.187-.175.367-.535.078-.148.117-.269.117-.348 0-.226.027-.41.063-.41l.019-.379.012-.144-.031-.035-.094-.094c-.047-.047-.078-.078-.094-.094-.011-.008-.027-.023-.054-.043.039-.035.066-.062.085-.082.051-.051.083-.082.094-.094.016-.02.043-.051.082-.097.02-.017.043-.047.074-.082"/><path d="m-186.253 321.578.074.081.086.098c.051.055.082.09.094.101.019.02.046.051.082.086l-.051.043-.094.094-.094.082-.031.043.008.137.012.359c.031.574.339 1.227.672 1.407.062.035.089.062.089.093l-.008.012-.082.022h-.093c-.125 0-.344-.039-.485-.086l-.105.758h-.145l-.105-.758c-.141.051-.352.086-.528.086-.113 0-.136-.008-.136-.043 0-.031.023-.054.093-.086.086-.035.239-.191.329-.336.164-.265.261-.496.261-.628 0-.227.032-.411.075-.411l.019-.39.012-.137c-.02-.017-.035-.031-.043-.043-.047-.047-.074-.074-.082-.082l-.106-.094-.043-.043.082-.086.098-.101c.047-.055.074-.086.082-.098.016-.017.035-.043.062-.082"/><path d="m-188.132 324.855.07.086.074.094c.02.022.051.054.094.093l.098.086c-.032.023-.047.035-.055.039l-.094.098-.125.125v.098c0 .554.164 1.25.348 1.445l.23.274c0 .002.039.035.118.097l.082.067-.082.058-.098-.011-.199-.02-.18-.031-.106-.023-.105.758h-.145l-.105-.758-.105.023-.18.031-.199.02-.094.011h-.016c-.039 0-.07-.017-.07-.035 0-.017.02-.043.047-.066l.156-.121c.348-.277.578-.953.578-1.719v-.098l-.035-.031-.094-.094c-.047-.05-.078-.082-.093-.097-.008-.003-.028-.02-.055-.04.043-.039.074-.066.098-.085.043-.04.074-.071.093-.094l.075-.094z"/><path d="m-184.339 324.855c.031.039.054.066.074.086.039.047.066.074.082.094.016.011.047.046.094.093.019.02.047.047.086.086-.032.023-.047.035-.051.039l-.223.223.012.149.019.386c.032.582.258 1.047.664 1.379l.082.066-.082.059-.097-.011-.199-.02-.176-.031-.106-.023-.105.758h-.149l-.117-.789c-.187.043-.195.078-.261.086l-.211.02-.094.011h-.012c-.035 0-.062-.017-.062-.035 0-.02.015-.043.043-.067l.16-.121c.133-.105.176-.16.367-.535.074-.144.113-.265.113-.347 0-.219.032-.399.063-.399l.023-.387.012-.148-.043-.031-.086-.094-.105-.098-.04-.039c.036-.039.063-.066.083-.086.144-.144.16-.16.242-.273"/><path d="m-192.21 323.163.043.157c.035.144.066.258.082.34.132.597.246.757.535.757.168 0 .304-.094.347-.234l.063-.211c.016-.047.051-.078.102-.078.113 0 .167.121.171.383.004.078.028.25.075.515.027.16.043.313.043.461 0 .133-.012.187-.063.328.035.207.063.485.063.645 0 .258-.047.5-.129.625.047.175.054.246.054.398 0 .11-.011.231-.031.348-.047.254-.055.316-.055.363 0 .051.008.098.024.141.02.062.031.105.031.129 0 .028-.015.05-.031.05l-.211-.081-.23-.129c-.075-.04-.129-.079-.243-.188-.203.184-.265.211-.8.356-.106.031-.184.062-.231.097-.066.047-.113.074-.141.074-.089 0-.132-.148-.132-.445 0-.226.023-.43.066-.586-.16-.062-.293-.094-.379-.094-.015 0-.066.009-.16.02l-.039.003c-.031 0-.055-.047-.055-.101 0-.04.027-.141.063-.227l.105-.254c.039-.09.125-.195.254-.305.102-.089.199-.144.274-.156l.375-.074c.226-.043.359-.164.359-.32 0-.149-.098-.254-.324-.332l-.453-.157c-.118-.043-.254-.109-.411-.199-.25-.148-.293-.168-.351-.168-.09 0-.145.066-.145.184 0 .187.121.32.297.32.035 0 .071-.008.106-.023.05-.019.086-.031.105-.031.051 0 .074.029.074.082l-.004.043-.019.18c-.016.152-.117.34-.336.633l-.094.125c-.086.336-.297.644-.566.828-.071.047-.11.078-.117.086-.008.011-.039.059-.086.148-.02.039-.09.125-.207.25-.09.098-.18.18-.266.242-.117.09-.188.153-.207.192l-.106.176c-.019.035-.05.054-.085.054-.094 0-.18-.098-.231-.265-.039-.121-.074-.157-.152-.157-.043 0-.102.012-.184.032l-.148.022h-.379c-.188 0-.453.047-.578.102-.047.022-.082.035-.106.035-.027 0-.043-.011-.07-.066-.02-.032-.024-.051-.024-.082 0-.192.137-.555.317-.84.113-.184.152-.227.285-.34-.043-.176-.16-.312-.297-.355l-.176-.051c-.027-.009-.043-.029-.043-.055 0-.051.086-.129.242-.211.204-.105.411-.168.575-.168.175 0 .343.07.539.223.285.222.363.262.5.262.226 0 .437-.204.437-.418 0-.145-.074-.301-.277-.559-.293-.379-.379-.574-.379-.855 0-.172.055-.391.117-.489l.106-.16c.023-.035.035-.066.035-.101 0-.071-.082-.117-.192-.117-.164 0-.484.117-.738.273-.125.074-.211.168-.211.223 0 .031.016.062.043.082l.117.074c.012.009.024.023.024.043 0 .017-.02.047-.043.082l-.211.274c-.109.14-.277.316-.441.461-.055.05-.09.081-.106.105 0 .003-.031.055-.086.156-.074.141-.273.348-.461.473-.078.055-.125.094-.148.117-.016.02-.043.066-.082.148-.028.051-.075.125-.137.219-.105.153-.188.262-.254.325l-.293.296c-.094.09-.172.266-.293.653-.078.23-.144.367-.183.367-.016 0-.047-.023-.082-.062-.208-.239-.387-.379-.481-.379-.023 0-.062.017-.117.05-.078.051-.172.086-.285.106l-.387.074c-.293.055-.41.121-.578.316-.039.047-.074.075-.09.075-.035 0-.059-.055-.059-.125l.012-.098.051-.285c.058-.301.129-.528.211-.68l.179-.328c.036-.062.051-.121.051-.172 0-.242-.25-.461-.554-.488-.079-.009-.11-.028-.11-.07 0-.055.086-.157.203-.246.211-.161.485-.274.66-.274.11 0 .274.043.477.125l.23.094c.086.039.165.055.235.055.242 0 .48-.223.773-.727.133-.226.188-.391.188-.539 0-.266-.125-.426-.332-.426-.156 0-.332.074-.453.199-.11.106-.164.219-.164.325l.004.117v.028c0 .098-.032.152-.09.152-.098 0-.242-.14-.657-.64-.308-.375-.375-.535-.386-.907-.36-.453-.446-.648-.446-.968l.016-.219c-.25-.297-.32-.457-.32-.731 0-.097.015-.156.078-.277-.125-.184-.168-.265-.203-.41l-.051-.219c-.035-.152-.094-.281-.168-.39-.098-.137-.106-.153-.106-.2 0-.125.083-.172.454-.261-.016-.102-.024-.18-.024-.235 0-.062.008-.121.031-.25l.075-.39c.031-.157.046-.27.046-.336 0-.075-.011-.125-.078-.336-.035-.121-.066-.2-.093-.242-.036-.051-.063-.117-.063-.141 0-.039.024-.062.07-.062.106 0 .379.167.664.402.606.5.727.699.809 1.305.008.046.02.117.031.211.289.214.442.468.442.742 0 .219-.079.472-.211.676l-.207.324c-.063.098-.094.219-.094.347 0 .2.055.383.195.633.164.281.301.399.473.399.273 0 .519-.485.519-1.032v-.074l-.004-.188c0-.105.008-.214.024-.347.02-.164.027-.266.031-.305l.012-.25.004-.168c0-.059-.035-.117-.11-.199l-.23-.254c-.336-.364-.52-.707-.52-.965 0-.32.231-.559.536-.559.062 0 .117.012.222.039v-.07c0-.461.098-.805.223-.805l.051.017.191.169.231.148.062.062c0-.132.008-.144.137-.293.031-.039.082-.105.148-.203.055-.074.086-.129.106-.156.015-.028.031-.059.051-.094.027-.054.054-.078.085-.078.032 0 .055.039.094.152.024.071.039.09.219.25.062.059.105.106.129.137.015.028.043.101.082.211.008.02.015.047.031.086.078-.102.117-.137.211-.192l.156-.094c.059-.035.102-.054.117-.054.016 0 .036.022.051.062.02.04.047.09.086.161.113.195.149.289.149.378v.231c.343.109.472.289.472.656 0 .27-.14.578-.41.899-.18.214-.203.257-.203.41 0 .777.543 1.226 1.496 1.238l.703.011c.453.009.723.051 1.145.188.5.164.644.203.789.203.051 0 .097-.017.137-.043.039-.028.062-.062.062-.094 0-.148-.258-.265-1.105-.504-1.731-.492-2.469-1.191-2.469-2.34 0-.886.738-1.574 1.691-1.574.309 0 .781.082 1.055.18l.43.16c.078.028.152.043.222.043.149 0 .223-.121.227-.371.004-.133.035-.176.121-.176.121 0 .309.153.48.387.172.242.286.512.286.691 0 .239-.114.407-.372.551-.234.36-.523.524-.914.524-.304 0-.734-.172-1.449-.579-.25-.14-.375-.187-.508-.187-.183 0-.304.11-.304.274 0 .148.117.25.422.355.457.16.566.223.746.41.535.094.769.188 1.105.442.922.293 1.492.922 1.492 1.644 0 .699-.472 1.203-1.132 1.203-.157 0-.254-.011-.497-.062"/><path d="m-172.601 323.163.043.157c.035.144.062.258.082.34.133.597.246.757.535.757.168 0 .305-.094.348-.234l.062-.211c.016-.047.051-.074.102-.074.113 0 .176.125.183.379.004.097.024.269.063.515.027.176.043.34.043.488 0 .106-.016.169-.063.301l.02.125c.035.207.043.289.043.387 0 .449-.02.582-.125.758.043.172.055.254.055.379 0 .078-.012.191-.035.367l-.043.316.011.188c.027.07.039.113.039.129 0 .028-.015.05-.039.05l-.211-.082-.23-.128c-.074-.04-.129-.079-.242-.188-.204.18-.231.195-.473.262-.348.098-.477.14-.547.191-.066.047-.117.074-.145.074-.082 0-.14-.16-.14-.39 0-.336.019-.512.074-.641-.203-.07-.309-.094-.383-.094-.027 0-.043 0-.152.02l-.047.003c-.031 0-.051-.039-.051-.101 0-.102.074-.309.172-.481.133-.234.348-.43.516-.461l.379-.074c.222-.043.355-.164.355-.32 0-.149-.098-.251-.324-.333l-.441-.156c-.149-.054-.29-.121-.422-.199-.114-.07-.188-.113-.231-.137-.039-.022-.078-.031-.113-.031-.098 0-.152.067-.152.176 0 .18.136.328.304.328.039 0 .074-.008.106-.023.051-.019.082-.031.097-.031.047 0 .082.047.082.114 0 .187-.117.507-.242.664l-.125.16-.094.125c-.035.269-.3.656-.566.828-.066.043-.105.07-.117.086-.008.011-.035.059-.086.148-.02.04-.09.125-.207.25-.09.098-.18.18-.266.242-.117.09-.187.153-.211.192l-.101.176c-.024.039-.051.054-.082.054-.094 0-.18-.098-.235-.265-.039-.121-.07-.157-.152-.157-.039 0-.102.012-.184.032l-.148.022h-.367c-.199 0-.465.047-.59.102-.047.023-.082.035-.106.035-.054 0-.082-.055-.082-.16 0-.332.254-.84.59-1.168-.05-.191-.152-.32-.285-.356-.117-.031-.183-.05-.187-.05-.024-.012-.036-.032-.036-.051 0-.066.079-.133.243-.215.3-.141.386-.168.554-.168.192 0 .352.066.551.223.285.222.363.261.5.261.223 0 .438-.203.438-.418 0-.148-.078-.308-.278-.558-.277-.36-.379-.59-.379-.895 0-.203.043-.312.223-.609.027-.047.043-.086.043-.11 0-.058-.094-.109-.199-.109-.113 0-.254.039-.442.125-.316.145-.507.281-.507.363 0 .032.023.067.054.09l.106.074c.011.009.019.023.019.044 0 .017-.015.054-.043.081-.019.023-.09.114-.207.274-.148.195-.289.34-.441.461-.059.043-.09.078-.106.105l-.086.157c-.07.132-.277.351-.449.472-.082.059-.129.098-.148.117-.024.023-.055.075-.094.149-.109.191-.277.43-.391.543l-.285.297c-.078.086-.191.328-.304.652-.086.254-.141.367-.18.367-.016 0-.047-.022-.082-.062-.203-.235-.387-.379-.477-.379-.023 0-.062.02-.121.051-.082.05-.176.086-.285.105l-.375.074c-.316.063-.445.129-.59.317-.035.047-.066.074-.086.074-.035 0-.062-.055-.062-.129l.011-.094c0-.008.02-.105.051-.285.055-.297.133-.547.211-.68l.188-.328c.035-.058.054-.117.054-.168 0-.242-.226-.441-.566-.492-.07-.011-.106-.039-.106-.078 0-.047.082-.141.211-.239.223-.168.469-.273.641-.273.117 0 .273.043.48.125l.235.094c.086.039.164.054.23.054.246 0 .485-.222.778-.726.132-.227.187-.391.187-.539 0-.266-.121-.426-.328-.426-.164 0-.32.07-.449.199-.114.117-.172.231-.172.336l.004.106.004.054c0 .086-.027.125-.09.125-.082 0-.172-.078-.355-.293-.075-.093-.172-.207-.293-.347-.321-.375-.387-.524-.399-.906-.359-.454-.445-.708-.445-.969l.011-.219c-.253-.305-.304-.426-.304-.727 0-.136.008-.171.062-.281-.125-.184-.164-.265-.199-.41l-.051-.219c-.035-.152-.093-.281-.168-.39-.093-.137-.105-.157-.105-.196 0-.109.105-.179.367-.246l.086-.02c-.016-.101-.024-.179-.024-.234 0-.062.008-.121.032-.25l.074-.391c.027-.152.043-.265.043-.343 0-.09-.012-.165-.063-.329-.035-.105-.07-.187-.105-.242-.039-.058-.063-.105-.063-.136 0-.035.036-.067.082-.067.028 0 .071.017.106.035.355.196.742.501 1.019.809.239.266.313.484.368 1.074.324.239.445.457.445.797 0 .203-.066.399-.215.621-.125.196-.195.305-.207.324-.062.106-.098.231-.098.36 0 .187.059.367.204.621.156.277.296.398.464.398.274 0 .524-.476.524-1v-.386l.027-.254.024-.305.019-.25.008-.141c0-.105-.02-.136-.344-.48-.355-.383-.523-.707-.523-1.004 0-.281.242-.52.535-.52.059 0 .113.012.219.04v-.125l.011-.219.063-.274c.051-.219.074-.258.148-.258l.051.017.191.168.231.149.062.062c.016-.132.028-.156.137-.293.055-.07.106-.136.149-.203l.105-.156.063-.094c.039-.062.058-.082.086-.082.027 0 .046.039.082.156.011.047.046.094.093.137l.137.113c.109.094.184.235.231.434.082-.106.125-.145.21-.191l.168-.094c.063-.035.098-.055.11-.055.011 0 .031.023.047.063.023.058.054.109.086.16.136.219.148.246.148.394l-.004.09v.125c.344.094.477.277.477.653 0 .285-.129.578-.403.902-.179.215-.211.285-.211.445 0 .742.563 1.192 1.504 1.203l.696.012c.453.008.726.054 1.144.187.488.161.645.203.793.203.106 0 .195-.058.195-.132 0-.153-.253-.27-1.101-.508-1.735-.492-2.473-1.192-2.473-2.336 0-.891.742-1.574 1.699-1.574.305 0 .778.078 1.043.175l.434.161c.078.028.152.043.223.043.148 0 .207-.09.226-.371.012-.121.051-.176.129-.176.11 0 .324.172.481.387.16.222.273.515.273.707 0 .222-.117.394-.367.535-.235.359-.524.523-.914.523-.301 0-.809-.203-1.449-.578-.254-.145-.364-.187-.504-.187-.188 0-.313.105-.313.273 0 .152.113.246.426.356.5.179.605.238.746.41.535.094.77.187 1.105.441.958.309 1.493.903 1.493 1.66 0 .692-.469 1.188-1.121 1.188-.172 0-.262-.011-.508-.062"/><path d="m-192.011 343.003c.094.235.125.348.137.496l.019.442c.02.441.164.66.442.66.101 0 .187-.028.234-.074l.113-.114.047-.017c.074 0 .113.051.113.137l-.011.172c-.008.078.004.238.043.484.019.141.031.285.031.422 0 .226-.016.312-.098.512.074.207.117.441.117.636 0 .227-.039.383-.125.512.039.18.051.254.051.356 0 .105-.011.238-.043.398-.035.219-.051.391-.039.504v.028c0 .067-.019.102-.062.102-.039 0-.086-.031-.129-.086-.063-.082-.106-.113-.153-.113-.074 0-.097.039-.203.355-.035.098-.117.226-.254.391-.101.125-.168.226-.187.3-.035.129-.055.204-.063.223-.011.029-.039.051-.062.051l-.016.003c-.172 0-.371-.371-.574-1.074-.059-.2-.133-.286-.238-.286-.074 0-.153.051-.184.117l-.062.149c-.012.023-.032.043-.055.043-.082 0-.211-.156-.293-.348-.062-.16-.102-.336-.102-.484 0-.328.243-.574.977-.988.316-.18.441-.407.441-.821 0-.324-.097-.511-.378-.726-.223-.164-.352-.231-.469-.231-.102 0-.176.067-.176.153 0 .097.055.16.191.207.164.055.235.113.235.188 0 .066-.071.206-.18.378-.121.184-.172.235-.34.348-.047.289-.183.473-.504.684-.062.179-.097.246-.211.386l-.218.286c-.071.089-.145.25-.157.324-.023.16-.039.191-.101.191-.082 0-.254-.148-.426-.367-.102-.133-.125-.191-.137-.348-.109.086-.144.098-.355.125-.129.02-.227.043-.285.075-.16.085-.215.109-.242.109-.043 0-.059-.023-.063-.098l-.012-.234c0-.316.125-.687.317-.934-.184-.16-.367-.257-.516-.273-.062-.009-.078-.017-.078-.039 0-.039.043-.121.102-.192.078-.101.14-.171.187-.21.149-.129.406-.223.609-.223.137 0 .336.05.598.148.094.035.18.055.254.055.113 0 .18-.074.18-.207 0-.191-.094-.492-.305-.973-.144-.324-.211-.543-.211-.691 0-.367.172-.742.387-.852-.098-.05-.145-.062-.235-.062-.101 0-.187.028-.32.105-.156.09-.242.168-.242.223 0 .02.031.055.086.09.082.059.094.078.094.156 0 .258-.215.609-.516.832-.066.371-.234.59-.566.746-.047.203-.075.258-.231.485-.277.386-.344.507-.39.726-.028.114-.051.16-.086.16-.047 0-.137-.07-.243-.183-.086-.094-.14-.161-.168-.2-.043-.07-.066-.136-.113-.336-.074.023-.098.029-.148.029l-.157-.009h-.105c-.23 0-.477.051-.598.129-.047.029-.078.039-.093.039-.067 0-.122-.14-.122-.316 0-.379.106-.691.352-1.035-.09-.078-.121-.106-.199-.192-.035-.039-.067-.062-.086-.074l-.117-.062c-.039-.02-.063-.047-.063-.07 0-.055.153-.2.336-.321.203-.129.363-.187.512-.187.172 0 .262.043.476.23.149.129.25.191.325.191.05 0 .105-.035.148-.093.035-.051.055-.106.055-.161 0-.199-.239-.539-.504-.714-.199-.129-.418-.2-.629-.2-.293 0-.543.145-.656.379l-.114.242c-.027.055-.062.086-.101.086-.067 0-.102-.031-.34-.308l-.273-.313c-.086-.098-.141-.191-.168-.274-.024-.078-.043-.125-.055-.136-.008-.017-.043-.043-.106-.086-.21-.149-.363-.445-.449-.871-.008-.031-.019-.078-.031-.137-.258-.316-.414-.707-.414-1.043 0-.046.004-.066.023-.144-.148-.152-.168-.188-.281-.59-.086-.285-.14-.41-.242-.547-.027-.035-.043-.062-.043-.082 0-.055.086-.101.242-.125.145-.023.153-.028.211-.028l.207.017-.011-.289c0-.168.011-.278.054-.481.02-.097.031-.172.031-.219 0-.017-.007-.078-.019-.179-.012-.079-.024-.129-.031-.157-.016-.039-.024-.07-.024-.089 0-.036.024-.051.063-.051.031 0 .074.017.136.047.184.09.336.179.454.269.363.285.648.723.648.992l-.008.082c-.012.094-.02.149-.02.157 0 .043.028.105.075.168l.113.16c.105.14.172.301.172.41 0 .097-.024.141-.192.387-.129.183-.179.32-.179.472 0 .188.074.426.211.664.125.219.265.336.406.336.234 0 .336-.207.371-.765.02-.293.047-.559.086-.801l.008-.145c0-.062-.02-.101-.106-.203l-.312-.367c-.301-.352-.395-.531-.395-.781 0-.289.192-.493.469-.493l.125.012v-.082c0-.066.016-.16.051-.285.066-.227.148-.399.195-.399.012 0 .047.017.102.051.015.011.078.039.187.074.059.02.102.043.211.106.051-.18.086-.266.168-.367.137-.176.289-.317.344-.317.031 0 .094.047.172.125l.199.211c.031.035.07.105.117.199l.039.098c.055-.035.098-.059.129-.074.082-.051.137-.082.168-.094.125-.063.192-.094.195-.098.059-.035.094-.054.11-.054.035 0 .054.066.133.414.054.238.062.289.074.461.336.046.496.238.496.601 0 .34-.168.676-.527 1.059-.098.105-.122.156-.122.254 0 .929.325 1.222 1.489 1.343.715.075.926.121 1.785.379.453.137.711.192.879.192.199 0 .308-.071.308-.2 0-.195-.14-.258-.976-.433-1.945-.41-2.711-1.074-2.711-2.36 0-.914.683-1.601 1.598-1.601.402 0 .765.121 1.335.449.528.309.637.359.758.359.141 0 .196-.089.196-.316 0-.148.046-.219.136-.219.086 0 .211.086.328.219.172.207.243.313.243.598 0 .379-.203.629-.602.738-.039.047-.074.082-.094.105-.214.243-.406.325-.75.325-.3 0-.675-.121-.929-.305l-.504-.356c-.219-.156-.379-.222-.532-.222-.214 0-.343.129-.343.344 0 .211.14.383.367.457l.473.144c.168.055.25.086.453.192.117-.02.172-.023.234-.023.297 0 .613.078.891.223.09.043.152.074.187.082l.266.074c.594.168 1.082.836 1.082 1.488 0 .742-.481 1.203-1.262 1.203z"/><path d="m-173.726 342.847c.184.242.441.399.652.399.063 0 .18-.017.282-.044.058-.011.105-.019.14-.019.051 0 .074.019.074.066 0 .035-.027.125-.054.195-.035.082-.055.145-.063.192l-.043.218-.105.192-.149.136-.039.039v.145c0 .254-.078.402-.285.539-.015.011-.043.031-.074.055l-.02.082c-.047.195-.082.32-.105.367-.027.059-.094.156-.199.297-.129.164-.211.301-.266.429-.043.106-.074.133-.144.133-.102 0-.204-.125-.223-.281-.024.031-.039.055-.051.063l-.125.085-.203.137c-.086.059-.145.102-.168.125l-.113.117c-.02.02-.043.031-.063.031-.051 0-.105-.089-.16-.265l-.105-.344c-.028-.094-.04-.207-.04-.34 0-.176.012-.234.071-.375-.211.023-.266.035-.375.074-.035.012-.074.02-.094.02-.035 0-.055-.022-.055-.062 0-.023.02-.098.043-.156l.137-.36c.106-.277.445-.527.719-.527.066 0 .152.02.269.055.067.022.121.035.157.035.125 0 .218-.09.218-.203 0-.055-.035-.117-.082-.137-.019-.009-.144-.047-.379-.117-.175-.051-.265-.117-.461-.344-.144-.168-.203-.215-.253-.215-.04 0-.063.029-.063.075l.008.14.004.063c0 .292-.086.57-.297.957l-.293.535c-.141.254-.199.445-.199.64 0 .211.09.399.211.43l.156.043c.02.003.039.017.055.031.019.023.031.043.031.063 0 .019-.02.054-.055.093-.015.023-.082.106-.187.243-.184.238-.297.324-.516.39-.129.309-.336.488-.703.61l-.043.074c-.125.219-.402.418-.582.418h-.039c-.024.195-.16.394-.367.539-.145.097-.223.156-.242.176-.012.017-.032.046-.051.093-.047.106-.094.149-.152.149-.11 0-.204-.106-.27-.305-.043.029-.074.051-.094.063-.121.086-.187.129-.199.137-.051.022-.172.058-.371.105-.254.063-.477.172-.535.262l-.094.16-.043.017c-.051 0-.109-.071-.137-.164-.054-.219-.093-.446-.093-.59 0-.375.125-.617.504-.996v-.09c0-.582.441-.977 1.093-.977l.106.003.355.023h.035c.196 0 .371-.074.567-.235.258-.207.332-.339.332-.574 0-.074-.024-.16-.102-.422-.051-.175-.078-.336-.078-.496 0-.433.32-.972.75-1.269.113-.079.195-.18.195-.239 0-.022-.011-.043-.027-.043-.027 0-.078.029-.137.082-.05.047-.132.098-.25.156l-.167.082-.192.074c-.058.023-.086.055-.086.094 0 .023.008.059.024.098.015.035.019.062.019.078 0 .023-.015.063-.051.121l-.144.242c-.148.239-.25.336-.434.418-.117.348-.289.524-.535.559-.199.398-.375.539-.726.578-.047.152-.133.281-.317.484-.07.082-.117.137-.133.168-.082.149-.089.157-.128.157-.047 0-.161-.071-.243-.157-.035-.039-.066-.082-.093-.129l-.094-.167c-.031-.051-.063-.079-.102-.079l-.066.003-.231.035c-.144.02-.351.137-.421.242l-.125.188c-.012.02-.032.031-.051.031-.094 0-.153-.207-.153-.551 0-.3.047-.503.149-.648l.297-.406c.039-.059.062-.117.062-.16 0-.047-.019-.094-.054-.137-.059-.074-.122-.117-.168-.125l-.219-.031c-.039-.009-.055-.017-.055-.035 0-.017.012-.043.031-.071.075-.094.164-.171.266-.23.258-.16.43-.223.605-.223.176 0 .372.063.551.18l.305.199c.043.029.094.043.144.043.141 0 .247-.082.348-.273.098-.184.141-.332.141-.488 0-.395-.285-.68-.676-.68-.184 0-.367.074-.547.211-.055.043-.09.082-.105.117l-.082.187c-.02.047-.051.074-.079.074-.05 0-.171-.152-.269-.347-.055-.102-.102-.231-.149-.379-.062-.203-.089-.359-.089-.524l.015-.285c-.14-.222-.187-.386-.187-.648 0-.098.011-.172.074-.371-.09-.145-.117-.254-.117-.469l.011-.129.032-.148.019-.125c-.101-.133-.129-.223-.23-.684-.055-.262-.09-.375-.137-.442-.02-.031-.031-.05-.031-.062 0-.063.148-.117.312-.117l.149.011c-.036-.097-.043-.133-.043-.21 0-.129.027-.278.078-.418.054-.161.066-.207.066-.258 0-.125-.019-.254-.047-.32l-.086-.211c-.015-.047-.027-.082-.027-.11 0-.02.016-.028.055-.028.207 0 .598.223.91.516.305.289.406.523.406.957l-.019.23c.289.25.414.457.414.684 0 .164-.055.273-.211.429-.285.281-.352.426-.352.789 0 .559.168.86.477.86.269 0 .48-.293.515-.727l.032-.398c.008-.102.023-.231.05-.379.016-.094.032-.219.032-.274 0-.14-.09-.32-.367-.64-.297-.344-.395-.532-.395-.801 0-.32.223-.559.527-.559.075 0 .114.012.203.059.004-.184.012-.219.118-.473.082-.203.168-.347.207-.347.015 0 .039.017.062.043.047.043.094.082.141.113.062.047.097.07.101.074.024.02.059.051.098.098.063-.239.133-.348.324-.539.149-.145.203-.188.231-.188.023 0 .051.02.074.051l.129.168.176.2c.07.078.093.144.125.328l.105-.063.168-.097c.031-.017.074-.044.129-.082.027-.02.051-.032.066-.032.016 0 .036.029.047.075l.063.242.137.269c.042.082.054.145.054.274v.066l.071-.003c.207 0 .382.246.382.528 0 .375-.297.859-.683 1.113-.039.129-.047.18-.047.281 0 .836.223 1.012 1.508 1.203.32.047.605.106.859.176.043.011.32.102.832.274.281.097.473.136.621.136.156 0 .242-.043.242-.125 0-.144-.211-.273-.855-.527l-.914-.356c-.93-.363-1.367-.929-1.367-1.765 0-.973.73-1.703 1.703-1.703.367 0 .726.074 1.242.265.664.239.695.25.769.25.129 0 .2-.086.219-.273.016-.156.059-.219.145-.219.129 0 .269.117.371.312.086.172.137.371.137.547 0 .348-.184.575-.516.641-.223.293-.504.433-.848.433-.418 0-.625-.081-1.34-.527-.253-.16-.363-.199-.55-.199-.25 0-.438.156-.438.367 0 .191.156.316.504.41.211.055.238.071.348.18.086-.02.121-.028.176-.028.339 0 .761.183 1.117.488.648.203 1.222.898 1.222 1.484 0 .649-.558 1.231-1.187 1.231-.168 0-.508-.055-.813-.129"/></g><g fill="#fddc02"><path d="m-191.171 327.765c-.028-.125-.039-.191-.039-.254l.008-.082.031-.168.011-.133c0-.148-.023-.254-.074-.316l-.125-.168c-.043-.059-.078-.125-.105-.203-.016-.039-.02-.066-.02-.086 0-.051.027-.078.074-.078.028 0 .039.003.133.062.043.023.078.036.106.036.062 0 .097-.102.097-.282 0-.203-.019-.316-.066-.363l-.156-.18-.137-.117c-.035-.028-.055-.062-.055-.09 0-.046.035-.078.086-.078.047 0 .145.023.231.055l.05.011c.043 0 .059-.028.059-.09l-.004-.039-.031-.223-.063-.23c-.019-.074-.031-.086-.078-.086l-.027.003-.262.051-.043.003c-.343 0-.707-.29-.82-.657l-.211-.679c-.062-.211-.219-.414-.504-.645-.086-.066-.156-.109-.207-.113l-.191-.023c-.035 0-.059-.023-.059-.051 0-.043.043-.062.133-.062l.348.031c.125.011.316.062.566.149.312.105.527.152.703.152.527 0 .84-.285.84-.758 0-.328-.168-.695-.43-.93-.148-.133-.293-.234-.347-.234-.028 0-.051.028-.051.059l.011.133v.011c0 .055-.031.094-.074.094-.051 0-.113-.071-.179-.211-.2-.414-.516-.66-.84-.66-.055 0-.098.022-.098.058 0 .02.02.075.055.153l.082.187c.023.051.035.082.035.098 0 .011-.02.022-.043.022-.051 0-.125-.043-.18-.097l-.156-.172-.137-.211c-.109-.168-.199-.242-.433-.367-.129-.066-.215-.113-.25-.137-.047-.028-.094-.043-.133-.043-.035 0-.055.02-.055.059 0 .031.016.07.039.113.078.117.11.18.11.207 0 .035-.024.067-.055.067-.082 0-.25-.168-.402-.391-.121-.184-.188-.391-.188-.59 0-.453.328-.785.777-.785.227 0 .52.094.79.262l.492.304c.172.106.425.188.574.188.066 0 .207-.023.309-.051.046-.011.089-.031.128-.054.028-.017.047-.04.047-.059 0-.02-.011-.039-.027-.043l-.062-.023-.231-.043c-.062-.009-.156-.043-.285-.105-.277-.125-.453-.211-.523-.262-.176-.113-.29-.18-.348-.199-.086-.029-.141-.067-.141-.098s.016-.047.047-.047.07.012.113.039c.153.098.289.149.391.149l.449.156c.227.078.551.149.699.149.192 0 .348-.156.348-.348 0-.125-.074-.309-.183-.461-.024-.035-.051-.055-.071-.055-.043 0-.066.032-.066.086l.011.082.016.125c0 .137-.094.246-.211.246-.039 0-.098-.011-.164-.035l-.684-.219c-.57-.183-.835-.242-1.121-.242-.82 0-1.441.563-1.441 1.301 0 .836.586 1.375 2.039 1.871 1.426.492 1.629.613 1.629.981 0 .21-.215.398-.453.398-.098 0-.18-.009-.254-.02-.047-.011-.285-.066-.711-.168-.434-.105-.824-.148-1.309-.148-1.031 0-1.605.179-2.097.66-.125.121-.164.14-.309.14l-.07-.003-.145-.008-.023-.003c-.121 0-.211.059-.293.191-.113.18-.172.274-.18.286-.031.039-.074.062-.121.062-.094 0-.152-.074-.258-.328-.051-.121-.125-.23-.219-.312l-.21-.192c-.036-.031-.055-.058-.055-.082 0-.019.015-.054.043-.093.101-.149.137-.215.148-.278.027-.136.032-.144.09-.144.063 0 .082.062.09.304 0 .071.027.165.082.286l.117.25c.012.035.051.054.094.054.109 0 .246-.257.285-.527.027-.226.051-.293.098-.293.019 0 .039.009.047.02.011.017.043.078.093.191.027.055.074.11.137.156.062.047.105.071.129.075h.012c.085 0 .113-.055.132-.254l.012-.106-.024-.144-.011-.102c0-.07.023-.109.062-.109.024 0 .051.017.078.043l.106.105c.07.067.141.102.207.102.086 0 .141-.035.141-.09 0-.051-.02-.102-.098-.246l-.07-.137c-.086-.156-.153-.219-.231-.219l-.109.012-.125.05c-.039.018-.067.023-.082.023-.02 0-.035-.02-.035-.043 0-.094.062-.242.179-.426.086-.133.141-.418.168-.828.035-.547.11-.902.188-.902.051 0 .07.043.07.16l-.004.145-.004.101c0 .098.02.176.047.176.09 0 .195-.133.281-.352.035-.09.055-.164.055-.215l-.012-.046-.211-.391-.211-.063c-.035-.011-.062-.028-.07-.046v-.258l-.023-.125-.043-.106-.051-.113c-.231.125-.34.203-.418.312-.086.11-.133.153-.172.153-.027 0-.051-.023-.051-.055 0-.028.012-.082.032-.172l.007-.058c0-.227-.136-.45-.363-.59l-.066.082-.074.105-.125.149c-.039.046-.075.117-.106.211-.012.043-.019.082-.019.117v.054c0 .09-.008.11-.047.11l-.028-.012-.074-.101-.113-.129-.18-.113-.093-.075c-.02.043-.036.075-.043.094-.032.074-.051.129-.051.168l-.012.168-.011.18v.031c0 .09-.02.129-.075.129-.019 0-.074-.022-.125-.054-.047-.029-.101-.044-.152-.044-.164 0-.266.114-.266.289 0 .211.059.411.168.551l.133.18c.039.047.11.09.113.062l.024-.219-.031-.179-.004-.082c0-.066.023-.11.062-.11.059 0 .094.067.133.243l.082.39.086.492c.024.133.063.278.125.422.082.199.145.321.18.367.113.149.129.172.129.204 0 .028-.02.05-.043.05-.024 0-.059-.011-.098-.035-.035-.017-.078-.031-.125-.039l-.082-.011c-.168 0-.203.144-.203.844 0 .429.09 1.011.199 1.289l.223.558c.035.086.051.176.051.262 0 .765-1.016 1.969-2.133 2.523-.414.207-.547.403-.578.86l-.012.136c.172-.086.242-.113.359-.144.313-.082.375-.121.422-.274l.039-.136c.02-.051.043-.071.285-.2.082-.047.141-.094.168-.136.055-.09.098-.137.125-.137.028 0 .039.011.039.035l-.007.039-.106.297-.012.074c0 .223.125.403.348.52.039-.242.067-.328.141-.441l.187-.293c.071-.11.102-.243.102-.45 0-.117-.012-.238-.027-.328l-.008-.086c0-.05.027-.082.074-.082.035 0 .066.012.07.032l.043.199c.008.043.051.074.102.074.101 0 .23-.133.371-.367.051-.09.078-.184.078-.277l-.016-.145-.031-.156-.004-.031c0-.071.039-.117.094-.117.023 0 .043.008.047.02l.062.242c.02.082.078.136.137.136.07 0 .191-.121.262-.261.062-.125.093-.266.093-.43 0-.227.024-.289.106-.289.027 0 .051.011.055.023l.039.136c.015.051.047.086.078.086.043 0 .16-.129.238-.262.024-.035.031-.07.031-.097 0-.047-.027-.09-.093-.145-.11-.094-.118-.105-.118-.242 0-.133.024-.203.118-.367.05-.09.097-.176.136-.254.133-.258.18-.324.231-.324.039 0 .074.043.074.089 0 .029-.008.059-.02.086-.031.063-.043.102-.043.125 0 .043.036.079.079.079.046 0 .109-.023.183-.063.027-.02.125-.058.293-.117l.348-.125c.058-.023.129-.031.211-.031.062 0 .129.003.187.02.125.028.207.043.242.043.098 0 .18-.082.18-.176 0-.07-.07-.207-.168-.32-.035-.039-.055-.074-.055-.094l.012-.043c.016-.023.035-.043.059-.043.07 0 .234.18.382.41.907 1.426 1.231 1.773 1.84 1.957.617.187.782.332.782.699 0 .2-.106.434-.329.75-.457.641-.57.899-.57 1.321v.078c.055-.023.09-.039.117-.055.086-.043.141-.066.168-.07l.262-.055c.078-.017.148-.117.148-.215v-.028l-.031-.231-.004-.031c0-.082.043-.176.098-.219.015-.017.035-.022.055-.022.031 0 .066.028.082.062l.168.359c.07.145.148.215.367.313"/><path d="m-199.644 320.148c-.074 0-.113.066-.121.211l-.024.199c-.023.187-.023.207-.023.254 0 .149.043.262.105.262.067 0 .172-.129.223-.274.031-.09.047-.168.047-.246 0-.07-.016-.152-.047-.238-.035-.106-.098-.168-.16-.168"/><path d="m-200.609 318.507.004.094c0 .129-.031.285-.14.688-.02.07-.032.144-.032.187 0 .07.027.149.086.242.035.055.067.09.094.102l.125.066.024.149c-.008.054.003.133.031.23.027.102.043.207.043.313 0 .089-.008.125-.027.125-.04 0-.11-.11-.176-.27-.102-.254-.192-.348-.332-.348-.117 0-.192.017-.328.082.031.043.054.071.062.086.008.011.039.074.094.18l.148.281c.102.199.16.309.18.336.039.063.086.113.144.149.02.011.079.043.168.093.051.029.086.071.086.098 0 .047-.035.082-.089.082h-.004l-.137-.02-.078-.011c-.039 0-.059.039-.059.117 0 .285.227.613.617.902.051.035.086.086.086.114 0 .035-.035.066-.078.066-.023 0-.086-.02-.133-.043-.027-.017-.054-.023-.074-.023-.051 0-.086.043-.086.11 0 .074.063.222.192.468.086.165.214.286.359.348l.473.199c.027.012.043.036.043.063 0 .039-.028.07-.067.074l-.094.011-.082.012-.136-.012h-.024c-.062 0-.09.012-.09.047 0 .051.059.184.157.34.109.191.207.297.269.297.024 0 .051-.02.067-.055l.113-.242c.019-.039.113-.113.273-.207.102-.062.199-.101.293-.117l.192-.031c.05-.009.074-.043.074-.102v-.022l-.031-.2-.024-.222-.02-.2-.023-.23c0-.059-.016-.086-.051-.086-.023 0-.066.035-.094.074-.164.254-.281.336-.457.336-.558 0-.984-.984-.984-2.289 0-.113.008-.258.024-.43.027-.335.031-.418.031-.543 0-.566-.117-.964-.36-1.203l-.148-.148-.094-.106"/><path d="m-199.253 326.191c-.145-.023-.215-.039-.305-.074-.024-.009-.09-.04-.199-.082-.168-.075-.293-.106-.403-.106-.156 0-.285.051-.437.176l.094.074.211.149.199.156c.051.043.113.062.176.062.203 0 .382-.094.664-.355"/><path d="m-195.206 328.105c.058-.133.085-.168.21-.274.293-.254.43-.441.43-.589v-.231c0-.137.024-.18.094-.18.031 0 .055.012.066.032l.051.125c.012.031.047.05.09.05.039 0 .098-.05.152-.125l.106-.144c.051-.075.074-.137.074-.207 0-.039-.008-.082-.024-.121-.008-.02-.031-.075-.07-.168-.027-.055-.043-.125-.043-.165 0-.066.031-.109.094-.109.031 0 .058.011.074.035l.082.102c.02.022.051.039.082.039.035 0 .082-.039.11-.09l.082-.168c.023-.043.035-.074.035-.094 0-.035-.035-.066-.098-.094l-.137-.066c-.179-.082-.316-.371-.316-.672 0-.039.008-.078.023-.113l.075-.18c.019-.051.031-.109.031-.168 0-.109-.035-.219-.106-.328-.085-.129-.132-.203-.136-.219-.063-.168-.094-.211-.145-.211l-.054.012-.075.043-.117.062-.137.168-.144.071c-.09.046-.172.234-.172.386 0 .274.031.352.391.973.14.238.214.445.214.598 0 .433-.386.738-1.16.926l-.484.113c-.356.086-.566.332-.641.746.149-.074.207-.086.465-.086l.156.003h.024c.141 0 .16-.011.25-.137.101-.144.207-.234.348-.293l.168-.074.136-.074.039-.012c.039 0 .059.017.059.044 0 .043-.039.109-.098.179-.121.133-.168.246-.168.407 0 .101.024.16.114.277"/><path d="m-196.531 326.472c.121.078.242.188.317.285.101.137.113.149.215.149.039 0 .093-.009.152-.023l.094-.02c.171-.031.234-.058.234-.101 0-.023-.02-.059-.055-.086l-.117-.106-.113-.105c-.074-.07-.223-.117-.348-.117s-.199.023-.379.125"/><path d="m-193.124 327.042.062-.011.094-.011.094.011.046.003c.235 0 .461-.199.461-.406 0-.075-.07-.114-.187-.114-.281 0-.461.164-.57.528"/><path d="m-171.562 327.765c-.023-.094-.031-.141-.031-.191l.011-.145c.024-.195.036-.289.036-.406 0-.078-.024-.141-.079-.211l-.125-.168c-.082-.113-.117-.195-.117-.289 0-.059.016-.082.059-.082l.047.012c.008.002.035.019.093.054.043.023.079.035.106.035.062 0 .094-.097.094-.297 0-.273-.051-.402-.211-.527l-.145-.117c-.027-.02-.043-.055-.043-.086 0-.051.031-.082.078-.082.028 0 .071.009.121.023l.118.031.043.009c.035 0 .054-.029.054-.09l-.004-.035-.031-.223c-.031-.227-.07-.317-.137-.317l-.019.003-.274.051-.046.003c-.329 0-.715-.309-.817-.656l-.199-.68c-.059-.207-.238-.43-.504-.645-.09-.066-.164-.105-.223-.113l-.187-.023c-.035 0-.059-.022-.059-.05 0-.044.039-.063.117-.063.266 0 .551.055.93.18.344.109.535.152.703.152.524 0 .84-.273.84-.726 0-.231-.082-.516-.199-.7-.102-.156-.274-.32-.492-.461-.036-.022-.063-.035-.086-.035-.028 0-.051.029-.051.055l.008.137.004.011c0 .051-.031.094-.07.094-.059 0-.118-.067-.184-.211-.195-.41-.508-.656-.828-.656-.07 0-.11.022-.11.066 0 .031.02.082.055.141.031.05.067.113.094.187.015.039.027.07.027.09s-.02.031-.051.031c-.047 0-.125-.043-.175-.098-.106-.113-.157-.168-.157-.171l-.136-.211c-.106-.16-.223-.262-.422-.367l-.262-.137c-.055-.028-.102-.043-.137-.043-.031 0-.047.02-.047.051s.016.074.047.121c.055.082.098.171.098.207 0 .035-.024.066-.055.066-.074 0-.203-.133-.39-.391-.133-.183-.2-.383-.2-.59 0-.441.34-.785.778-.785.226 0 .508.094.789.262l.504.305c.179.109.425.187.574.187.086 0 .109-.003.297-.051.054-.017.101-.031.136-.055.024-.011.04-.035.04-.058 0-.043-.024-.063-.09-.067-.235-.017-.723-.206-1.043-.41-.184-.117-.301-.183-.344-.199-.09-.031-.145-.074-.145-.113 0-.012.016-.023.043-.023l.063.011.457.168.441.157c.219.078.555.148.707.148.2 0 .336-.136.336-.336 0-.101-.023-.215-.066-.293-.063-.125-.149-.234-.18-.234-.043 0-.066.043-.066.113l.004.055.015.137c0 .14-.078.234-.199.234-.047 0-.105-.011-.172-.035l-.683-.219c-.594-.191-.825-.242-1.114-.242-.828 0-1.449.558-1.449 1.301 0 .836.574 1.363 2.047 1.871 1.434.496 1.621.613 1.621.988 0 .219-.203.391-.457.391-.094 0-.18-.009-.25-.02-.058-.017-.297-.07-.711-.168-.441-.11-.812-.149-1.308-.149-1.043 0-1.543.156-2.09.66-.125.117-.176.141-.317.141l-.07-.003-.164-.011c-.129 0-.223.062-.297.191l-.168.285c-.023.039-.07.063-.121.063-.109 0-.168-.075-.269-.328-.055-.133-.125-.243-.211-.313l-.219-.191c-.035-.029-.055-.055-.055-.079 0-.019.02-.054.055-.097.031-.043.062-.094.094-.149.031-.058.05-.101.05-.129l.012-.093c.008-.032.039-.051.074-.051.071 0 .082.047.086.305 0 .066.027.164.082.285l.117.25c.012.035.051.054.094.054.109 0 .246-.257.285-.527.027-.223.051-.293.098-.293.043 0 .062.023.152.211.027.055.071.109.125.156.051.043.098.071.129.075h.008c.09 0 .117-.055.137-.254l.011-.106-.019-.144-.016-.102c0-.07.024-.109.063-.109.023 0 .051.017.078.043l.105.105c.071.066.141.106.211.106.09 0 .145-.043.145-.106 0-.055-.012-.078-.106-.234-.008-.012-.031-.059-.074-.137-.09-.176-.133-.219-.215-.219l-.109.012-.137.05c-.039.017-.07.023-.082.023-.019 0-.035-.02-.035-.043 0-.094.063-.242.18-.426.074-.113.133-.398.179-.828l.051-.492c.035-.305.067-.41.129-.41.024 0 .039.008.039.02l.035.16v.125c0 .152.016.277.036.277.042 0 .109-.051.171-.141.047-.062.082-.133.106-.211.035-.109.055-.203.055-.273 0-.242-.102-.348-.434-.442-.031-.008-.055-.019-.063-.031l-.011-.094v-.179l-.02-.125-.043-.106-.05-.113-.083.051c-.214.132-.269.175-.339.261-.094.121-.129.153-.168.153-.028 0-.051-.02-.051-.047l.043-.18v-.028c0-.231-.129-.453-.36-.621l-.074.081-.074.106-.125.148c-.074.086-.117.203-.117.309l.004.035v.035c0 .086-.012.114-.051.114l-.023-.012-.086-.101-.106-.129-.187-.113-.094-.075c-.102.219-.106.242-.106.528v.086c0 .093-.031.152-.082.152-.027 0-.07-.017-.129-.051-.046-.028-.101-.043-.156-.043-.152 0-.265.129-.265.309 0 .191.043.324.171.531.082.136.188.25.239.25.008 0 .019-.098.031-.227l-.031-.179-.008-.082c0-.067.027-.11.066-.11.059 0 .094.067.133.242l.082.391.086.492c.024.133.066.277.125.422.082.199.145.32.18.367.117.149.129.172.129.203 0 .028-.02.051-.047.051-.02 0-.055-.011-.094-.035-.035-.017-.078-.031-.125-.039l-.078-.012c-.172 0-.207.141-.207.836 0 .438.09 1.016.199 1.297l.223.559c.035.086.05.175.05.261 0 .77-1.039 1.996-2.132 2.524-.426.203-.551.418-.59.996.183-.086.258-.114.371-.145.308-.09.375-.133.418-.273l.043-.137c.019-.059.058-.09.273-.199.082-.043.137-.09.168-.137.055-.09.098-.136.125-.136.031 0 .047.019.047.054l-.004.02-.117.297-.012.074c0 .219.125.403.348.52.016-.055.027-.098.035-.125.035-.16.07-.266.102-.317l.203-.293c.07-.105.086-.175.086-.449l-.016-.328-.004-.086c0-.055.024-.082.074-.082.036 0 .067.012.067.031l.031.2c.008.043.051.074.106.074.101 0 .23-.129.367-.367.054-.094.078-.168.078-.254 0-.067-.016-.211-.035-.324l-.004-.063c0-.051.031-.086.082-.086.023 0 .047.009.051.02l.07.242c.027.082.082.137.14.137.161 0 .329-.329.344-.684.012-.219.039-.297.106-.297.027 0 .047.009.054.023l.039.136c.016.051.047.086.075.086.027 0 .082-.046.148-.125.035-.046.067-.09.094-.136.019-.039.031-.075.031-.114 0-.05-.012-.066-.094-.129-.078-.058-.117-.133-.117-.222 0-.152.067-.317.254-.641.172-.293.195-.328.234-.328.043 0 .071.039.071.09 0 .031-.008.062-.02.09-.031.062-.043.105-.043.129 0 .039.035.074.082.074.051 0 .114-.023.192-.062.043-.029.14-.067.281-.117.195-.071.316-.114.359-.125.063-.023.141-.036.215-.036.063 0 .121.009.184.023.121.028.203.043.242.043.094 0 .168-.074.168-.168 0-.039-.027-.121-.063-.18-.054-.089-.086-.136-.097-.148-.043-.047-.063-.074-.063-.094l.012-.043c.011-.023.035-.043.058-.043.082 0 .247.172.395.41.824 1.348 1.223 1.773 1.828 1.957.629.191.777.324.777.699 0 .2-.105.442-.324.75-.422.582-.57.926-.57 1.313v.086c.051-.023.09-.039.117-.055.086-.043.141-.066.168-.07l.262-.055c.082-.017.148-.113.148-.219v-.023l-.023-.23v-.035c0-.133.062-.239.14-.239.032 0 .067.029.082.063l.168.359c.071.145.149.215.368.313"/><path d="m-180.179 320.558-.012.168v.102c0 .171.027.246.09.246.07 0 .18-.133.227-.274.031-.09.054-.215.054-.285 0-.051-.011-.098-.054-.199-.047-.114-.094-.168-.153-.168-.09 0-.132.117-.152.41"/><path d="m-180.999 318.507.004.094c0 .094-.032.274-.075.445-.043.149-.062.227-.066.242-.012.059-.02.125-.02.188 0 .149.071.289.18.344l.113.066.024.149c-.004.054.004.133.031.23.027.106.043.211.043.317 0 .085-.008.121-.027.121-.039 0-.11-.11-.172-.27-.106-.254-.195-.348-.336-.348-.117 0-.191.017-.328.082.109.145.176.262.305.547.168.375.23.449.492.578.058.031.097.067.097.098 0 .051-.039.082-.093.082-.024 0-.094-.009-.149-.02l-.078-.008c-.039 0-.058.035-.058.117 0 .281.238.617.628.898.055.039.086.078.086.106 0 .019-.011.035-.035.05-.015.017-.035.023-.054.023-.02 0-.071-.02-.122-.043-.031-.017-.058-.023-.078-.023-.05 0-.082.047-.082.121 0 .098.071.266.192.457.113.18.234.301.347.348l.473.199c.024.012.043.035.043.063 0 .035-.027.066-.066.074l-.082.011-.094.012-.129-.012h-.02c-.066 0-.09.012-.09.047 0 .051.047.156.153.34.117.203.199.297.262.297.023 0 .046-.02.066-.055l.113-.242c.016-.031.11-.102.274-.207.097-.066.199-.105.293-.117.254-.031.277-.047.277-.149 0-.039-.012-.109-.035-.207-.008-.054-.02-.129-.031-.222l-.02-.2-.024-.23c0-.059-.015-.086-.05-.086-.024 0-.059.031-.082.074-.125.204-.309.336-.453.336-.59 0-.989-.933-.989-2.308l.008-.411.035-.496.004-.175c0-.422-.148-.86-.363-1.075l-.144-.148-.098-.106"/><path d="m-179.644 326.191c-.219-.039-.254-.047-.504-.156-.172-.079-.281-.11-.394-.11-.164 0-.293.055-.446.18l.094.074.211.149.199.156c.051.043.113.062.18.062.203 0 .379-.094.66-.355"/><path d="m-175.597 328.105c.058-.133.086-.168.211-.274.293-.254.43-.441.43-.589v-.231c0-.137.023-.18.093-.18.031 0 .059.012.067.032l.05.125c.012.031.047.046.09.046.074 0 .129-.054.258-.265.055-.09.078-.149.078-.207 0-.039-.011-.078-.027-.121-.008-.02-.031-.075-.074-.168-.024-.055-.043-.125-.043-.165 0-.066.035-.109.097-.109.028 0 .059.011.075.035l.082.102c.019.022.023.039.054.039.039 0 .11-.039.137-.09l.082-.168c.024-.043.031-.074.031-.098 0-.031-.031-.07-.082-.09l-.148-.066c-.172-.074-.316-.367-.316-.652 0-.029.011-.075.031-.133l.066-.18c.02-.059.031-.117.031-.176 0-.101-.035-.199-.105-.32-.074-.117-.117-.192-.129-.219-.059-.156-.094-.207-.148-.207-.036 0-.071.011-.133.051l-.106.062-.148.168-.145.071c-.09.046-.172.238-.172.394 0 .227.047.352.391.965.145.258.215.449.215.598 0 .425-.438.781-1.149.925-.851.172-1.039.313-1.136.86.148-.075.207-.086.465-.086l.156.003h.023c.141 0 .161-.012.25-.137.102-.145.203-.234.344-.293l.172-.074.133-.074.043-.012c.039 0 .058.017.058.043 0 .039-.031.098-.101.18-.098.121-.156.25-.156.344 0 .14.019.215.105.34"/><path d="m-176.921 326.472c.121.078.242.188.316.285.102.137.113.149.215.149.039 0 .094-.009.152-.023l.094-.02c.18-.035.234-.058.234-.109 0-.029-.015-.055-.043-.078l-.129-.106-.113-.105c-.07-.067-.219-.118-.332-.118-.133 0-.238.035-.394.125"/><path d="m-173.515 327.042.062-.011.106-.011.086.011.055.003c.105 0 .16-.011.207-.047.062-.047.128-.129.199-.238.027-.047.043-.09.043-.121 0-.071-.067-.114-.184-.114-.289 0-.465.16-.574.528"/><path d="m-192.191 349.246.063-.125.148-.157c.125-.136.191-.324.191-.547 0-.105-.019-.222-.054-.335-.027-.086-.043-.157-.043-.188 0-.066.051-.129.101-.129.02 0 .051.02.079.051l.156.179c.097.11.133.133.254.157l.011-.145.008-.172c0-.254-.09-.535-.23-.711-.082-.109-.121-.172-.121-.211s.027-.074.058-.074c.008 0 .024.009.043.023.102.074.153.105.18.105.051 0 .098-.125.098-.265 0-.2-.086-.43-.215-.59-.067-.078-.11-.133-.125-.156-.016-.02-.024-.04-.024-.059 0-.047.039-.078.094-.078.039 0 .062.011.129.054.031.02.058.032.078.032.082 0 .113-.118.113-.43l-.004-.129-.011-.187c-.012-.223-.032-.262-.125-.262h-.082c-.512 0-.754-.328-.883-1.199-.098-.633-.332-1.082-.621-1.18-.172-.055-.235-.094-.235-.141 0-.028.047-.058.102-.058.035 0 .125.022.195.054.422.169.774.254 1.082.254.504 0 .899-.371.899-.843 0-.36-.172-.723-.477-1.02-.086-.082-.176-.133-.266-.156l-.015-.003-.055.02.02.152.043.106.011.043c0 .022-.023.039-.05.039-.032 0-.059-.017-.079-.039l-.187-.285c-.148-.223-.481-.415-.723-.415-.086 0-.14.04-.14.102 0 .031.027.082.066.121.051.062.094.137.094.168l-.012.043c-.011.023-.027.039-.043.043h-.011c-.051 0-.075-.022-.301-.281-.188-.215-.57-.422-.778-.422-.027 0-.054.012-.074.031-.015.012-.023.029-.023.039 0 .032.027.075.074.118.066.062.117.132.117.16 0 .022-.027.043-.058.043-.063 0-.196-.09-.446-.285-.394-.309-.57-.598-.57-.938 0-.406.293-.726.664-.726.215 0 .504.105.703.254l.516.39c.234.176.523.274.824.274.066 0 .129-.017.184-.043.046-.023.074-.051.074-.071 0-.017-.039-.031-.094-.046-.187-.043-.336-.11-.441-.188l-.528-.398c-.195-.149-.332-.246-.41-.285-.277-.145-.332-.18-.332-.211 0-.017.027-.031.063-.031.027 0 .058.008.089.022l.274.114c.09.039.238.125.445.261.559.379.848.5 1.176.5.316 0 .547-.226.547-.527 0-.059-.016-.125-.043-.18l-.055-.105c-.015-.039-.051-.067-.062-.055l-.032.043-.031.223c0 .008-.011.031-.031.074-.02.039-.047.074-.074.101-.055.059-.106.075-.192.075-.164 0-.347-.086-.84-.399-.496-.316-.945-.484-1.3-.484-.758 0-1.368.609-1.368 1.363 0 1.055.645 1.527 2.661 1.969.765.168 1.101.39 1.101.73 0 .313-.25.508-.648.508-.121 0-.215-.003-.285-.02-.067-.011-.43-.113-1.082-.293-.454-.125-.957-.199-1.403-.199-.793 0-1.324.238-1.687.742-.043.063-.086.098-.114.098-.019 0-.05-.017-.085-.043l-.149-.117c-.101-.078-.266-.141-.375-.141-.082 0-.156.031-.223.09-.054.047-.093.074-.109.074-.059 0-.164-.133-.25-.304-.117-.246-.18-.492-.18-.715 0-.106.036-.18.082-.18.036 0 .063.028.079.086l.082.305c.046.168.144.304.214.304.036 0 .09-.046.157-.129.039-.046.066-.097.082-.144.066-.195.082-.223.133-.223.062 0 .093.039.136.231.008.035.02.09.067.18.043.081.086.144.125.191.035.035.074.055.109.055.094 0 .18-.157.18-.325l-.004-.046-.012-.196c0-.074.012-.098.055-.098.023 0 .043.012.074.051.043.059.105.11.176.149.066.031.117.05.152.05.031 0 .067-.019.102-.05.027-.029.043-.059.043-.086 0-.029-.035-.078-.149-.188-.058-.062-.133-.207-.211-.422-.027-.082-.066-.136-.097-.136-.008 0-.032.008-.071.022l-.136.051-.094.043-.035.009c-.047 0-.082-.031-.082-.075 0-.039.097-.152.211-.25.086-.07.132-.171.136-.285.008-.176.039-.312.075-.312l.031-.367c.015-.188.09-.536.16-.727.012-.039.027-.062.039-.062.031 0 .055.078.055.164v.054l-.008.106c0 .137.023.203.062.203.047 0 .098-.066.145-.184l.094-.238c.027-.074.042-.141.042-.199 0-.204-.125-.352-.292-.352l-.075.011c-.043.017-.066.023-.074.023-.058 0-.105-.062-.105-.133l.011-.152-.011-.211-.043-.219-.012-.105-.094.05-.113.098-.168.137-.137.113c-.023.02-.054.031-.078.031-.082 0-.094-.019-.094-.183l.004-.043c0-.129-.058-.235-.273-.489-.012-.011-.031-.035-.055-.062l-.039.074-.117.188-.117.296-.02.188c-.008.055-.027.098-.05.098-.02 0-.055-.029-.098-.075-.16-.183-.211-.219-.449-.304l-.024.074c-.035.121-.058.195-.062.219l-.012.199v.152c0 .055-.02.09-.055.09h-.008c-.004 0-.023-.02-.062-.055-.024-.019-.07-.031-.125-.031-.199 0-.324.106-.324.274 0 .125.047.219.238.515.086.133.184.235.227.235.023 0 .046-.071.046-.152l-.019-.125c-.02-.059-.031-.114-.031-.161 0-.058.019-.089.05-.089.094 0 .192.273.231.652l.043.387c.015.14.058.281.125.421.097.196.191.329.277.387.098.07.16.141.16.18 0 .035-.027.063-.054.063-.004 0-.075-.023-.215-.075l-.086-.011c-.211 0-.281.121-.281.48 0 .438.293 1.067.621 1.329l.484.39c.246.195.43.524.43.758 0 .305-.336.609-.914.816l-.348.129c-.27.098-.375.27-.484.778.14-.043.199-.055.293-.055h.047l.156.003c.14 0 .242-.082.242-.203v-.094c0-.029.039-.067.094-.094.093-.047.144-.07.148-.074l.113-.094c.02-.017.039-.023.059-.023.035 0 .059.028.059.063 0 .028-.008.062-.02.097-.039.094-.059.219-.059.36 0 .257.043.398.172.586.012-.071.024-.117.032-.137.023-.055.082-.149.179-.285.16-.223.278-.492.278-.637l-.004-.047-.032-.242c0-.043.02-.082.051-.113.024-.02.051-.031.074-.031.043 0 .071.028.106.105.023.059.054.094.074.094.039 0 .109-.098.156-.211.035-.082.055-.16.055-.223 0-.039-.012-.082-.031-.133-.024-.054-.035-.093-.035-.121s.007-.039.042-.07c.02-.011.036-.02.055-.02.02 0 .043.009.063.02l.093.063c.032.022.063.035.082.035.043 0 .106-.047.149-.117.094-.141.148-.258.148-.301 0-.028-.015-.047-.074-.09-.211-.144-.348-.371-.348-.559 0-.046.012-.097.032-.156l.105-.281c.055-.144.082-.219.086-.223l.031-.011c.036 0 .055.031.055.082 0 .035-.008.074-.023.121-.028.066-.043.152-.043.199 0 .074.039.114.109.114.051 0 .109-.012.176-.04.316-.136.57-.21.718-.21.145 0 .235.031.383.136.039.029.074.043.098.043.019 0 .043-.017.062-.043.012-.02.02-.039.02-.055 0-.035-.024-.085-.063-.132-.054-.07-.074-.11-.074-.153 0-.031.02-.05.059-.05.164 0 .422.519.668 1.347.191.653.246.715.871 1.071.527.296.726.593.726 1.074 0 .472-.128 1.074-.402 1.867-.086.254-.121.422-.121.562 0 .11.02.219.102.5.039.137.062.215.074.243.011.031.039.081.082.156"/><path d="m-194.628 347.777c.062-.145.082-.18.199-.36.172-.258.23-.39.23-.515v-.168c0-.157.032-.231.094-.231.024 0 .043.012.055.031l.054.086c.016.029.043.043.075.043.031 0 .086-.043.117-.089.074-.114.121-.262.121-.375l-.012-.114-.008-.121c0-.062.028-.09.086-.09.039 0 .059.017.094.094.024.051.051.086.078.086s.063-.028.09-.066l.082-.125.063-.094.015-.051c0-.031-.019-.059-.078-.098-.195-.14-.277-.355-.293-.746-.012-.297-.027-.488-.055-.578-.004-.02-.066-.172-.187-.453-.047-.11-.09-.235-.125-.375-.027-.098-.059-.129-.133-.129-.285 0-.5.246-.5.566 0 .192.078.489.223.856.203.508.254.691.254.871 0 .387-.153.555-.688.746-.601.215-.883.523-.984 1.082.047-.02.082-.031.101-.043.071-.028.117-.043.149-.051l.168-.043c.144-.035.261-.117.285-.199l.043-.149c.008-.035.027-.058.062-.074l.094-.039.094-.043.023.043-.043.133c-.015.047-.023.129-.023.246 0 .23.047.367.18.535"/><path d="m-200.273 338.054c.016.059.024.098.024.117 0 .035-.016.125-.043.274l-.02.215c0 .183.035.386.094.55.055.153.066.2.066.242l-.004.044c-.008.043-.027.074-.039.074-.019 0-.058-.023-.109-.067-.117-.105-.25-.156-.387-.156-.043 0-.105.009-.18.02l.055.117.156.391.219.336.235.156c.019.017.042.035.062.063.02.031.031.054.031.07 0 .02-.019.035-.043.035l-.211.011c-.031 0-.054.02-.054.043 0 .036.027.141.086.313l.105.305.18.168.187.136c.059.04.09.086.09.121 0 .029-.015.055-.035.059l-.105.011c-.036.003-.055.032-.055.082 0 .079.074.223.211.411.164.222.277.293.465.293h.156c.074 0 .121.039.121.097 0 .051-.031.078-.102.094-.144.031-.187.059-.187.125 0 .028.019.07.055.117l.082.113c.07.098.148.16.199.16.027 0 .094-.028.152-.097.094-.106.203-.196.34-.231.367-.09.441-.129.441-.215 0-.028-.011-.07-.039-.121-.117-.207-.16-.343-.16-.515 0-.129-.031-.219-.082-.219-.019 0-.051.031-.086.082-.086.133-.23.223-.367.223-.363 0-.801-.567-1.02-1.325-.05-.175-.078-.375-.078-.566 0-.199.028-.418.078-.645.071-.304.11-.476.118-.511l.011-.145c0-.262-.238-.594-.613-.855"/><path d="m-199.515 339.515c-.078.149-.148.477-.148.684 0 .125.042.218.093.218.016 0 .039-.019.055-.05l.117-.211c.02-.035.039-.07.074-.129.043-.063.075-.121.075-.156 0-.121-.118-.278-.266-.356"/><path d="m-198.359 344.253c.024.029.043.043.055.055.043.043.07.074.082.082.207.215.234.234.336.234.09 0 .281-.05.39-.105.043-.023.071-.051.071-.074 0-.012-.035-.055-.102-.117l-.117-.106c-.086-.078-.219-.152-.277-.152-.121 0-.246.055-.438.184"/><path d="m-195.921 346.156c.113.046.152.066.211.105.093.063.148.098.168.106.031.017.089.022.168.022.046 0 .089-.008.125-.022l.222-.082.211-.075c.055-.019.094-.05.094-.082 0-.017-.047-.039-.117-.054-.047-.012-.098-.031-.157-.055-.257-.101-.296-.117-.386-.117-.207 0-.414.101-.539.254"/><path d="m-193.261 348.269c.07-.168.117-.195.355-.211.27-.017.528-.496.528-.824 0-.031-.012-.059-.024-.059-.015 0-.039.012-.07.031-.078.051-.129.082-.16.098l-.305.137c-.203.089-.379.359-.379.574 0 .07.012.133.055.254"/><path d="m-174.105 345.757.043-.113.043-.149c.008-.028.047-.09.113-.179.106-.141.16-.317.16-.524 0-.062-.015-.125-.054-.199-.02-.043-.031-.078-.031-.102 0-.011.007-.031.019-.046.016-.02.031-.032.043-.032l.008-.002c.027 0 .074.031.109.074.043.055.082.086.106.086.047 0 .098-.078.125-.2.015-.062.019-.097.019-.105 0-.051-.039-.184-.093-.293-.02-.043-.032-.078-.032-.109 0-.035.028-.067.059-.067s.082.032.141.09c.027.029.058.043.078.043.066 0 .113-.066.164-.23.031-.102.043-.149.043-.164 0-.031-.016-.051-.039-.051l-.035.003-.125.011c-.192 0-.461-.133-.59-.285l-.293-.355c-.113-.141-.274-.348-.262-.348l-.242-.156c-.043-.029-.067-.063-.067-.09 0-.039.043-.063.102-.063.055 0 .227.059.543.192.301.129.777.234 1.062.234.504 0 .918-.406.918-.898 0-.274-.121-.524-.418-.871-.054-.063-.148-.125-.191-.125-.035 0-.058.022-.058.058 0 .032.011.071.031.121.011.032.019.067.019.098 0 .047-.015.074-.05.074-.067 0-.133-.109-.192-.296-.066-.235-.203-.375-.523-.539-.121-.059-.282-.118-.332-.118-.024 0-.035.02-.035.047 0 .039.015.082.042.125.043.071.075.141.083.2v.011c0 .039-.02.062-.059.062-.066 0-.082-.017-.234-.254-.079-.121-.293-.281-.473-.355-.059-.029-.121-.039-.18-.043h-.008c-.035 0-.066.017-.066.039 0 .011.015.043.047.098l.015.058c0 .031-.019.059-.047.059-.066 0-.261-.16-.414-.336-.168-.195-.273-.437-.273-.633 0-.398.383-.758.812-.758.11 0 .2.02.27.055l.367.187.43.286c.25.164.59.285.797.285.074 0 .133-.012.328-.067.105-.028.168-.066.168-.105l-.004-.008-.035-.023-.235-.02c-.125-.011-.418-.145-.648-.293l-.484-.316-.43-.18c-.035-.011-.055-.035-.055-.055s.024-.039.047-.039c.004 0 .043.009.121.02l.402.117c.098.028.258.101.481.223.441.23.723.335.934.335.242 0 .421-.168.421-.394 0-.074-.015-.199-.043-.301-.011-.047-.031-.094-.062-.136-.016-.029-.039-.044-.051-.044-.031 0-.047.036-.047.086l.004.075.004.058c0 .196-.074.262-.289.262-.176 0-.41-.066-.945-.281-.5-.196-.813-.274-1.125-.274-.789 0-1.485.649-1.485 1.383 0 .637.422 1.121 1.286 1.477l.894.371c.738.3 1.008.519 1.008.804 0 .242-.219.395-.566.395-.153 0-.34-.043-.684-.152-.836-.266-1.379-.375-1.855-.375-.782 0-1.336.211-1.782.679-.058.063-.09.082-.144.082-.035 0-.071-.011-.149-.058-.082-.047-.168-.079-.23-.079-.078 0-.195.067-.254.141l-.106.137c-.031.039-.062.062-.089.062-.078 0-.211-.129-.297-.285-.055-.094-.09-.184-.106-.27-.011-.07-.023-.176-.023-.289l.011-.195.032-.211c.015-.102.027-.16.031-.18.008-.022.031-.039.051-.039.054 0 .078.047.078.164v.067l-.004.046c0 .297.117.571.25.571.101 0 .191-.18.269-.547.012-.07.043-.114.078-.114.043 0 .067.051.098.211.02.102.086.242.16.336.039.055.082.082.117.082.086 0 .145-.129.188-.43.015-.117.051-.191.09-.191.019 0 .035.011.043.023.011.008.035.047.074.117.027.043.066.078.117.101.051.032.094.043.121.043.035 0 .071-.017.098-.043.047-.039.074-.07.074-.086 0-.017-.023-.046-.062-.089-.067-.075-.122-.172-.188-.348-.043-.117-.078-.195-.094-.242-.019-.039-.035-.062-.054-.074l-.032-.009-.062.009c-.012.002-.086.028-.223.062l-.066.011c-.031 0-.051-.019-.051-.05 0-.029.039-.079.086-.117.266-.211.426-.567.484-1.082.036-.313.075-.434.211-.622.028-.039.051-.062.067-.062.039 0 .062.031.062.094 0 .039-.011.09-.035.148-.016.04-.023.082-.023.129l.004.04.019.062.117-.043.125-.145c.074-.09.137-.285.137-.429 0-.102-.024-.172-.086-.243-.066-.081-.109-.113-.156-.113l-.074.009-.075.002c-.066 0-.101-.019-.101-.062l.019-.078.012-.117-.066-.262-.051-.129-.031-.101-.075.05-.156.094c-.043.029-.086.067-.129.117-.148.18-.156.188-.219.188-.035 0-.058-.012-.058-.039l.004-.044c.023-.097.035-.171.035-.218 0-.184-.133-.461-.297-.614-.219.211-.336.442-.336.664v.125c0 .051-.015.075-.047.075h-.004c-.027-.003-.054-.023-.074-.055l-.125-.168c-.011-.011-.066-.055-.168-.137-.023-.017-.051-.039-.086-.07l-.043.082c-.105.207-.14.332-.148.504-.004.14-.016.183-.047.183-.016 0-.039-.011-.066-.022-.161-.09-.176-.098-.243-.098-.191 0-.32.137-.32.336 0 .074.043.195.133.348.094.172.238.328.301.328.019 0 .023-.011.023-.063v-.022l-.011-.18-.02-.137v-.017c0-.043.016-.058.047-.058.094 0 .176.277.246.832.062.488.199.824.41 1.019.055.051.086.09.086.114 0 .019-.019.035-.043.035-.031 0-.078-.02-.137-.055-.039-.023-.078-.031-.113-.031-.105 0-.223.121-.246.254l-.094.597-.074.84c-.012.16.008.375.066.633.047.227.071.391.071.496 0 .629-.391 1.129-1.039 1.32l-.672.2c-.422.125-.625.402-.684.914.11-.086.141-.098.305-.125l.199-.031c.086-.017.145-.032.18-.055.019-.011.058-.051.117-.113l.176-.2c.07-.078.129-.121.168-.121.023 0 .043.031.043.063 0 .039-.024.097-.074.171-.047.079-.075.172-.075.274 0 .133.035.219.168.41.02-.062.035-.105.043-.125.02-.035.071-.109.16-.219.145-.191.25-.386.25-.476.004-.16.016-.215.059-.215.035 0 .043.008.059.101.004.023.015.043.031.063.023.028.047.043.062.043.016 0 .043-.017.086-.043.071-.047.129-.098.168-.149.043-.055.078-.117.102-.187.035-.094.055-.16.055-.2v-.136c0-.035.015-.067.035-.067.023 0 .078.059.109.118.027.043.039.054.07.054h.004c.039-.003.075-.02.098-.043.125-.125.207-.277.207-.394l-.008-.195-.043-.157-.004-.017c0-.031.027-.058.051-.058.051 0 .101.066.172.219.035.074.066.109.097.109.051 0 .09-.039.188-.18l.094-.136c.023-.032.031-.067.031-.106s-.008-.074-.031-.105l-.082-.125c-.016-.023-.024-.059-.024-.106 0-.144.055-.304.16-.496.078-.136.121-.223.137-.261.016-.044.035-.063.059-.063.019 0 .035.023.035.051l-.012.117v.168c.016.039.043.055.09.055.035 0 .07-.009.109-.023l.266-.094c.062-.023.141-.063.238-.117.414-.227.539-.274.742-.274.125 0 .278.047.5.149.047.02.082.031.11.031.027 0 .062-.02.09-.051.019-.028.031-.054.031-.082 0-.039-.016-.081-.043-.129-.031-.058-.063-.132-.063-.156 0-.031.02-.046.047-.046.024 0 .063.028.082.054.027.051.11.192.239.422.199.348.453.59.675.641l.461.105c.141.031.18.086.18.266 0 .328-.156.613-.422.785l-.379.242c-.137.086-.25.328-.25.531 0 .129.031.36.074.539l.071-.074.179-.105.157-.157.086-.23.082-.211c.043-.101.089-.168.125-.168.035 0 .054.059.054.16v.067c0 .152.02.218.137.445"/><path d="m-180.316 348.941c.129-.117.149-.125.508-.199.285-.059.418-.188.48-.473.047-.207.075-.246.262-.356.063-.035.11-.07.137-.105.023-.028.043-.043.055-.043.019 0 .035.02.035.047 0 .035-.024.093-.067.171-.031.051-.043.114-.043.204 0 .167.035.281.125.418.067-.141.102-.18.266-.293.207-.149.285-.317.324-.696.016-.16.047-.242.09-.242.02 0 .035.012.047.031l.074.161c.008.019.035.035.066.035.028 0 .086-.031.133-.078l.149-.137c.058-.059.101-.203.125-.442.008-.085.039-.144.074-.144.019 0 .043.02.051.051l.062.211c.016.046.047.081.074.081.016 0 .043-.017.086-.05.055-.051.106-.102.145-.16.051-.067.074-.137.074-.211v-.176c0-.039.016-.082.043-.117.02-.028.035-.043.047-.043.023 0 .047.022.059.054l.039.118c.019.046.058.081.101.081.055 0 .11-.046.195-.168.024-.035.043-.062.063-.082.047-.058.074-.105.074-.136 0-.012-.015-.039-.043-.074-.152-.2-.23-.442-.23-.715 0-.348.133-.645.535-1.188.242-.328.379-.633.379-.844 0-.058-.027-.089-.082-.089-.039 0-.078.011-.129.039-.039.02-.067.031-.078.031-.02 0-.047-.017-.071-.043l-.074-.082-.051-.086c-.019-.031-.054-.051-.085-.051-.008 0-.036.009-.082.02l-.094.011c-.11.003-.153.044-.153.149l.004.063.004.046c0 .09-.082.235-.191.332l-.199.176c-.246.223-.438.574-.438.805 0 .101.031.262.09.457.094.316.129.465.129.566 0 .504-.773 1.168-2.199 1.895-.723.367-.906.586-.906 1.082l.011.187"/><path d="m-181.007 337.917v.262c0 .055-.004.094-.024.172-.031.144-.039.195-.039.234 0 .203.027.301.145.512.066.113.109.25.109.352 0 .043-.019.066-.047.066-.019 0-.035-.012-.051-.031l-.086-.117c-.066-.09-.128-.114-.3-.114l-.18.012c.07.179.094.246.125.367.086.343.098.367.285.535.188.168.203.191.203.25 0 .047-.031.086-.074.086l-.066-.012-.043-.002c-.059 0-.11.105-.11.222 0 .066.028.176.067.266.027.062.051.105.074.125l.105.105c.028.029.043.067.043.11 0 .05-.031.093-.066.093-.02 0-.051-.011-.094-.035-.023-.011-.051-.02-.074-.02-.047 0-.07.029-.07.086l.019.157.063.273c.015.059.054.129.117.199.051.059.105.102.156.125.133.059.203.09.211.094.02.017.031.047.031.086s-.031.074-.07.074c-.011 0-.047-.008-.109-.022l-.106-.009c-.105 0-.113.003-.113.086 0 .055.004.109.02.164l.043.168c.043.18.101.274.164.274.015 0 .043-.017.078-.044.152-.113.457-.218.648-.218.199 0 .422.022.508.05.047.017.082.029.098.029.027 0 .035-.029.039-.121l.019-.188.043-.328.031-.242v-.137c-.039.036-.066.059-.085.075-.18.168-.29.222-.477.222-.48 0-.758-.543-.758-1.492 0-.391.055-.941.164-1.578.024-.133.035-.227.035-.289 0-.348-.222-.684-.601-.93"/><path d="m-180.292 340.273.093-.094.094-.086c.078-.07.141-.215.141-.324 0-.047-.012-.094-.035-.149-.036-.078-.106-.148-.149-.148-.035 0-.07.086-.082.222l-.023.157-.032.16-.008.156v.105"/><path d="m-181.218 344.57c.105.039.129.058.242.187.145.172.227.211.418.211.051 0 .102-.003.148-.02l.137-.042.106-.032c.05-.017.082-.035.082-.054 0-.02-.082-.09-.207-.176-.086-.059-.168-.105-.254-.149-.09-.043-.168-.062-.242-.062-.145 0-.29.043-.43.136"/><path d="m-179.789 347.648c.184-.078.25-.114.461-.231.184-.101.286-.156.305-.168.195-.101.285-.175.285-.23 0-.066-.117-.11-.32-.11-.41 0-.742.278-.742.622z"/><path d="m-175.523 344.98c.149-.031.199-.07.274-.074l.187.011c.024-.009.066-.035.125-.082.035-.028.086-.062.148-.109.211-.141.223-.153.223-.196 0-.058-.086-.09-.262-.09-.332 0-.535.157-.695.54"/></g><g fill="#211e1e"><path d="m-197.066 319.656-.051-.149-.015-.086c0-.086.043-.133.16-.175.207-.079.273-.114.359-.192l.114-.105.011-.003c.031 0 .055.035.055.082 0 .133-.145.379-.293.629-.109.187-.16.304-.203.304-.051 0-.106-.082-.117-.179l-.02-.125"/><path d="m-197.687 319.234.18.094c.047.028.074.062.074.101l-.012.066c-.027.09-.004.188-.008.227-.008.187-.148.184-.207.184-.035 0-.015-.02-.101-.114l-.231-.265c-.07-.082-.132-.266-.156-.473v-.028c0-.055.016-.079.063-.079.027 0 .078.023.117.055l.281.231"/><path d="m-197.054 320.328.168-.106.098.023c.117 0 .144.031.144.16 0 .188-.117.266-.328.793-.094.234-.109.367-.25.367-.152 0-.27-.125-.391-.422l-.136-.336c-.098-.234-.137-.379-.137-.465 0-.081.062-.133.156-.133.051 0 .102.017.149.044.082.046.125.074.128.074l.122.011.054-.003.223-.008"/><path d="m-177.421 319.687-.086-.18-.016-.086c0-.09.039-.129.172-.175.133-.051.277-.129.348-.192l.113-.105.012-.003c.031 0 .05.035.05.078 0 .137-.121.348-.269.602-.11.183-.18.336-.223.336-.055 0-.105-.082-.117-.18l.016-.094"/><path d="m-178.078 319.234.18.094c.051.028.078.074.078.125l-.004.043-.054.191-.032.207c-.004.028-.027.043-.054.043h-.008c-.043-.011-.157-.059-.227-.144l-.16-.266c-.024-.028-.086-.125-.137-.293-.019-.062-.035-.121-.043-.18l-.004-.028c0-.055.02-.078.067-.078.027 0 .078.022.117.054l.281.231"/><path d="m-177.437 320.328.16-.106.059-.011c.117 0 .25.113.25.234 0 .106-.137.164-.196.313l-.113.472c-.086.227-.195.336-.332.336-.16 0-.277-.125-.394-.422-.055-.133-.098-.246-.137-.336-.086-.203-.133-.355-.133-.437 0-.102.059-.16.152-.16.051 0 .102.017.149.043.082.047.121.07.125.074l.125.012.055-.003z"/><path d="m-197.949 338.874-.05-.156-.012-.047c0-.017.02-.031.043-.031s.082.031.125.067c.047.035.074.035.148.05.286.075.344.129.344.266l-.008.176-.043.16c-.019.066-.035.09-.066.09-.024 0-.207-.129-.227-.164l-.105-.149z"/><path d="m-196.675 339.136-.141.242c-.031.039-.051.059-.051.059h-.008c-.058 0-.113-.125-.117-.258l-.019-.211c.015-.086.066-.125.195-.145.109-.019.18-.043.215-.066.097-.07.152-.109.168-.113l.015-.003c.028 0 .047.02.047.051v.017l-.074.179-.23.25"/><path d="m-196.949 339.851.168-.082c.028-.017.055-.023.078-.023.082 0 .141.059.141.172 0 .121-.094.281-.219.512-.14.25-.246.422-.351.422-.153 0-.367-.239-.574-.641-.047-.094-.079-.207-.079-.293 0-.133.055-.203.168-.203.047 0 .086.011.121.031l.094.062c.082.059.176.086.27.086.062 0 .129-.017.183-.043"/><path d="m-178.699 338.581.149.094c.086.055.156.09.211.114.164.07.218.093.218.156 0 .02-.003.078-.019.117-.016.047-.027.097-.031.148-.016.145-.102.18-.16.18-.067 0-.145-.109-.262-.316-.051-.094-.125-.281-.168-.418l-.004-.043c0-.023.015-.039.043-.039l.023.008"/><path d="m-177.277 338.949-.242.242c-.086.113-.086.211-.105.23-.016.017-.043.029-.075.031h-.015c-.063 0-.106-.043-.11-.105l-.011-.18-.012-.176v-.011c0-.07.039-.105.094-.117l.223-.062.23-.117c.07-.032.09-.04.102-.04.027 0 .046.029.046.059 0 .017-.008.039-.019.066z"/><path d="m-178.339 339.663.156.114c.039.023.09.035.141.035.066 0 .16-.023.25-.066l.136-.063c.032-.011.059-.02.082-.02.082 0 .149.086.149.2 0 .152-.11.316-.274.547l-.113.242c-.094.129-.156.179-.23.179-.125 0-.184-.074-.371-.445-.133-.265-.188-.426-.188-.555 0-.113.055-.191.141-.191.031 0 .074-.008.121.023"/></g><path d="m-197.285 320.632h-.136c-.024 0-.043.012-.055.031l-.02.051.051.254.043.219c.024.121.067.172.156.172.106 0 .168-.075.18-.203l.024-.231c.011-.152.019-.234.019-.238 0-.023-.011-.047-.031-.067-.016-.017-.035-.022-.055-.022l-.008.002z" fill="#fddc02"/><path d="m-177.679 320.632h-.125c-.02 0-.039.012-.051.031-.019.029-.031.047-.031.051l.051.254.043.219c.023.121.043.172.132.172.102 0 .192-.075.204-.203l.019-.231c.016-.152.024-.234.024-.238 0-.023-.012-.047-.032-.067-.015-.017-.035-.022-.054-.022l-.012.002z" fill="#fddc02"/><path d="m-197.191 340.105-.117-.023h-.016c-.066 0-.101.039-.101.114 0 .105.082.304.191.457.02.028.051.043.078.043.071 0 .118-.129.153-.34l.031-.156.004-.031c0-.063-.02-.086-.074-.086h-.024z" fill="#fddc02"/><path d="m-178.203 340.242.012.199c.004.09.078.18.152.18.098 0 .164-.145.204-.368.019-.105.023-.117.023-.148 0-.078-.027-.098-.125-.098l-.055.003h-.074l-.047-.003c-.066 0-.09.051-.09.184v.05" fill="#fddc02"/><path d="m-190.035 330.058h1.114c.125-.266.297-.383.562-.383.262 0 .43.114.582.383h.91c.11-.242.328-.383.598-.383.246 0 .488.16.57.383h.844c.129-.246.328-.383.559-.383.234 0 .425.106.566.317l.043.066h1.176v5.445h-1.028v2.09h-1.21v-2.09h-3.051v2.09h-1.207v-2.109h-1.028z" fill="#211e1e"/><path d="m-189.597 330.503h6.684v4.582h-6.684z" fill="#ee2e4f"/><path d="m-188.902 331.55c-.176 0-.316.145-.316.321 0 .175.14.316.316.316s.317-.141.317-.316c0-.176-.141-.321-.317-.321" fill="#fddc02"/></g><path d="m-188.902 331.55c-.176 0-.316.145-.316.321 0 .175.14.316.316.316s.317-.141.317-.316c0-.176-.141-.321-.317-.321z" fill="none" stroke="#211e1e" stroke-width=".09"/><path d="m-183.656 331.55c-.175 0-.316.145-.316.321 0 .175.141.316.316.316.176 0 .317-.141.317-.316 0-.176-.141-.321-.317-.321" fill="#fddc02" fill-rule="nonzero"/><path d="m-183.656 331.55c-.175 0-.316.145-.316.321 0 .175.141.316.316.316.176 0 .317-.141.317-.316 0-.176-.141-.321-.317-.321z" fill="none" stroke="#211e1e" stroke-width=".09"/><path d="m-188.902 334.042c-.176 0-.316.145-.316.317 0 .176.144.32.328.32.168 0 .305-.144.305-.32 0-.172-.141-.317-.317-.317" fill="#fddc02" fill-rule="nonzero"/><path d="m-188.902 334.042c-.176 0-.316.145-.316.317 0 .176.144.32.328.32.168 0 .305-.144.305-.32 0-.172-.141-.317-.317-.317z" fill="none" stroke="#211e1e" stroke-width=".09"/><path d="m-183.656 334.042c-.175 0-.316.145-.316.317 0 .176.141.32.316.32.176 0 .317-.144.317-.32 0-.172-.141-.317-.317-.317" fill="#fddc02" fill-rule="nonzero"/><path d="m-183.656 334.042c-.175 0-.316.145-.316.317 0 .176.141.32.316.32.176 0 .317-.144.317-.32 0-.172-.141-.317-.317-.317z" fill="none" stroke="#211e1e" stroke-width=".09"/><g fill-rule="nonzero"><path d="m-187.906 333.078c.43.539.977.804 1.649.804.621 0 1.051-.223 1.551-.804-.5-.516-.969-.731-1.583-.731-.648 0-1.23.266-1.617.731" fill="#fddc02"/><path d="m-187.585 333.078c.441-.344.816-.489 1.281-.489.469 0 .816.137 1.269.5-.394.391-.742.539-1.277.539-.477 0-.906-.187-1.273-.55" fill="#211e1e"/><path d="m-187.046 332.972c.265.168.476.235.722.235.293 0 .535-.075.77-.235-.246-.117-.504-.18-.758-.18-.266 0-.512.059-.734.18" fill="#fddc02"/><path d="m-189.691 330.738h6.871v.234h-6.871z" fill="#211e1e" stroke="#211e1e" stroke-width=".03"/><g fill="#fddc02"><path d="m-188.636 330.441v.656c0 .156.121.274.281.274.188 0 .289-.098.289-.274v-.648c0-.25-.098-.403-.262-.403-.035 0-.086.012-.128.031-.036.02-.059.032-.075.044-.023.022-.047.05-.062.085-.027.059-.043.098-.043.118z"/><path d="m-186.57 330.98v.117c0 .156.121.274.281.274.188 0 .293-.098.293-.274v-.648c0-.247-.105-.403-.265-.403-.188 0-.309.152-.309.395z"/><path d="m-184.566 330.441v.656c0 .156.121.274.281.274.184 0 .289-.098.289-.274v-.648c0-.25-.101-.403-.261-.403-.035 0-.086.012-.129.031-.035.02-.063.032-.074.044-.028.022-.047.05-.067.085-.023.059-.039.098-.039.118z"/><path d="m-188.785 335.984h.625v.805h-.625z"/><path d="m-188.785 336.968h.625v.254h-.625z"/><path d="m-184.523 335.984h.625v.805h-.625z"/><path d="m-184.523 336.968h.625v.254h-.625z"/></g><g fill="#211e1e"><path d="m-150.191 316.441v.48h-.316c-.469 0-1.254 0-1.254 1.465v6.004c0 3.676-1.598 5.461-4.887 5.461-3.715 0-5.445-1.484-5.445-4.66v-6.805c0-1.465-.793-1.465-1.492-1.465h-.149v-.48h5.555v.48h-.149c-.687 0-1.546 0-1.546 1.465v6.5c0 2.801 1.168 4.164 3.574 4.164 2.344 0 3.578-1.469 3.578-4.242v-6.422c0-1.465-.809-1.465-1.399-1.465h-.296v-.48z"/><path d="m-144.191 329.085v.481h-4.687v-.481h.187c1.535 0 1.735-1.172 1.735-2.492v-7.883c0-1.261-.727-1.789-1.754-1.789h-.168v-.476h3.687l7.977 9.773v-7.433c0-1.68-1.176-1.864-1.68-1.864h-.332v-.476h4.734v.476h-.203c-.832 0-1.715.196-1.715 2.492v10.215l-.699.003-9.047-10.945.004 7.898c0 1.321.192 2.5 1.778 2.5h.183"/><path d="m-119.058 326.781 2.887-8.063c.515-1.375.183-1.797-1.008-1.797h-.242v-.48h3.734v.48h-.082c-.406 0-.883.121-1.238 1.024l-4.371 11.668h-.832l-4.75-11.559c-.375-.961-.821-1.133-1.618-1.133h-.109v-.48h5.422v.48h-.352c-.925 0-1.105.582-.843 1.289z"/><path d="m-97.16 317.062-.004 5.809h1.125c2.043 0 2.946-.911 2.946-3.043 0-1.731-1.117-2.852-2.797-2.852-.395 0-.93.031-1.27.086zm2.016-.621c2.906 0 4.348 1.07 4.348 3.273 0 1.867-1.457 2.813-2.606 3.278l-.086.031 3.219 4.902c.516.793.934 1.102 1.824 1.149v.492h-3.363l-3.902-6.16h-1.453v4.082c0 1.48.66 1.597 1.589 1.597h.258v.481h-5.703v-.481h.258c.641 0 1.383-.289 1.383-1.101v-9.539c0-1.524-.899-1.524-1.383-1.524h-.258v-.48z"/><path d="m465.303 169.171c0-4.529-3.887-6.312-7.508-8.205-4.252-2.204-9.135-4.496-9.135-11.361 0-6.644 5.06-10.94 12.291-10.94 2.956 0 6.3.598 7.773.886l.51 7.242-1.396.199c-.642-3.809-2.624-6.732-6.898-6.732-4.031 0-7.009 2.469-7.009 6.92 0 4.197 3.875 5.913 7.485 7.74 4.418 2.215 9.478 4.518 9.478 11.449 0 7.674-6.831 11.106-13.154 11.106-2.514 0-6.002-.509-8.814-2.092l-.886-8.061 1.351-.233c1.03 5.348 4.429 8.438 8.903 8.438 4.285 0 7.009-2.614 7.009-6.356" transform="matrix(.352778 0 0 .352778 -245.66 267.394)"/><path d="m-72.152 316.441v.48h-.183c-.75 0-1.438.141-1.438 1.16v9.844c0 1.02.688 1.16 1.438 1.16h.183v.481h-5.48v-.481h.187c.746 0 1.438-.14 1.438-1.16v-9.844c0-1.019-.692-1.16-1.438-1.16h-.187v-.48z"/><path d="m-127.449 316.441v.48h-.187c-.746 0-1.438.141-1.438 1.16v9.844c0 1.02.692 1.16 1.438 1.16h.187v.481h-5.48v-.481h.183c.75 0 1.442-.14 1.442-1.16v-9.844c0-1.019-.692-1.16-1.442-1.16h-.183v-.48z"/><path d="m644.683 192.745.133 9.877s-1.207.299-1.584.409c-.354-4.318-1.329-7.839-8.227-7.839h-9.279v18.248h7.961c3.909 0 4.972-2.181 5.415-5.957h1.583v15.258l-1.583.022c-.244-3.643-1.107-6.477-5.381-6.477h-7.995v16.022c0 4.662 4.008 4.662 8.26 4.662 7.618 0 11.162-.488 13.288-8.194.31.077 1.561.343 1.561.343l-2.137 10.287h-34.625v-1.705h.665c2.646 0 5.104-.499 5.104-4.12v-35.001c0-3.621-2.458-4.13-5.104-4.13h-.665v-1.705z" transform="matrix(.352778 0 0 .352778 -245.66 267.394)"/><path d="m-87.335 336.167-.004 7.286h1.406c2.562 0 3.691-1.141 3.691-3.817 0-2.172-1.398-3.574-3.504-3.574-.492 0-1.125.028-1.589.105zm2.527-.777c3.644 0 5.449 1.344 5.449 4.102 0 2.343-1.824 3.527-3.265 4.113l-.106.043 4.035 6.144c.649.997 1.176 1.383 2.285 1.446v.613h-4.211l-4.898-7.73h-1.82v5.125c0 1.859.824 2.004 1.988 2.004h.328v.601h-7.156v-.601h.328c.797 0 1.734-.364 1.734-1.383v-11.965c0-1.906-1.129-1.906-1.734-1.906h-.328v-.606z"/><path d="m-68.531 335.386v.606h-.234c-.938 0-1.805.175-1.805 1.453v12.347c0 1.278.867 1.454 1.805 1.454h.234v.601h-6.875v-.601h.231c.937 0 1.804-.176 1.804-1.454v-12.347c0-1.278-.867-1.453-1.804-1.453h-.231v-.606z"/><path d="m499.916 139.031h24.604c1.24 0 2.835-.311 3.078-1.927h1.196l-.941 9.7h-1.329c-.077-2.237-.409-5.504-3.997-5.504h-7.507v28.723c0 4.474 2.148 4.85 4.551 4.85h.786v1.362h-16.953v-1.362h.786c2.824 0 4.551-.232 4.551-4.739v-28.834h-7.596c-3.864 0-4.24 1.706-4.982 5.459h-1.34l.852-9.578h1.097c.498 1.551 1.838 1.861 3.144 1.85" transform="matrix(.352778 0 0 .352778 -245.66 267.394)"/><path d="m-45.691 316.441v.488c-.754.043-1.211.559-1.551 1.039l-3.332 5.137v4.191c0 1.668.606 1.789 1.606 1.789h.277v.481h-5.98v-.481h.277c1.039 0 1.605-.261 1.605-1.636v-4.032l-3.617-5.172c-.55-.796-.968-1.324-1.843-1.324h-.114v-.48h5.422v.48h-.168c-1.039 0-1.113.555-.672 1.184l2.805 4.344 2.477-3.922c.57-.856.734-1.606-.672-1.606h-.215v-.48z"/><path d="m585.033 156.016c0 9.191 4.053 19.079 12.967 19.079 8.149 0 12.124-5.658 12.124-17.296 0-8.548-4.562-17.628-13.021-17.628-11.206 0-12.07 12.125-12.07 15.845zm-6.909 1.883c0-11.029 8.382-19.666 19.089-19.666 11.671 0 19.81 7.552 19.81 18.37 0 11.837-8.216 20.441-19.555 20.441-11.206 0-19.344-8.05-19.344-19.145" transform="matrix(.352778 0 0 .352778 -245.66 267.394)"/><path d="m621.264 176.224v-1.351h.531c2.126 0 4.075-.398 4.075-3.288v-27.904c0-2.89-1.949-3.289-4.075-3.289h-.531v-1.35h25.999l.088 7.861c-.21.067-.952.244-1.24.321-.299-3.189-1.03-6.245-5.47-6.245h-8.493v14.55h7.452c3.078 0 3.521-2.425 3.543-4.363h1.229v11.915h-1.218c-.033-2.326-.575-5.282-4.396-5.282h-6.61v13.786c0 3.288 2.779 3.288 5.237 3.288h.465v1.351h-16.587" transform="matrix(.352778 0 0 .352778 -245.66 267.394)"/><path d="m-162.691 343.609c0-2.449.992-4.852 2.699-6.383 1.586-1.422 3.668-2.219 6.02-2.219 2.101 0 3.859.379 5.574 1.18l.172 3.812-.539.071c-.621-2.211-1.652-4.235-5.141-4.235-3.582 0-5.808 2.84-5.808 7.403 0 4.066 1.8 7.91 6.16 7.91 2.449 0 4.195-.918 5.515-2.613l.43.808c-1.484 1.922-3.781 2.942-6.39 2.942-5.309 0-8.692-3.133-8.692-8.676"/><path d="m-127.203 338.574-.543 10.164c-.101 2.254.598 2.449 2.11 2.508h.14v.597h-5.546v-.597h.211c1.867-.075 1.984-1.114 2.07-2.633l.644-10.407c.086-1.421-.691-2.226-2.004-2.226h-.187v-.598h4.66c.055.129 5.59 12.473 5.59 12.473s5.23-12.344 5.289-12.477h4.566v.606h-.089c-1.852 0-2.18.578-2.039 2.902l.636 10.918c.098 1.277.766 1.395 2.028 1.442v.593h-6.832v-.597h.047c1.113-.067 1.914-.114 1.914-1.231l-.02-1.18c0-.002-.504-10.527-.504-10.527s-5.633 13.527-5.691 13.66h-.496c-.055-.136-5.954-13.39-5.954-13.39"/><path d="m-61.105 336.171-.004 12.926c0 1.746.738 2.027 2.504 2.027 4.16 0 6.051-3.582 6.051-7.089 0-5.457-2.25-7.938-6.879-7.938-.41 0-1.281.035-1.672.074zm-4.836 15.676v-.601h.235c.937 0 1.804-.176 1.804-1.454v-12.347c0-1.278-.867-1.453-1.804-1.453h-.235v-.606l7.36-.003c2.734 0 5.027.688 6.628 2.176 1.575 1.469 2.411 3.547 2.411 6.016 0 2.308-.922 4.539-2.52 6.129-1.609 1.597-3.867 2.14-6.148 2.14z"/><path d="m-35.535 350.999v-4.035c0-.879-.644-1.347-1.859-1.347h-.191v-.586h6.328v.586h-.192c-.886 0-1.355.468-1.355 1.347l-.004 4.492c-1.508.489-3.535.872-5.785.872-5.434 0-8.946-3.524-8.946-8.973 0-5.793 4.633-8.438 8.993-8.438 1.949 0 3.957.391 5.226.817l.262 3.929-.551.032c-.683-2.828-1.941-3.938-4.777-3.938-3.824 0-6.141 2.82-6.141 7.356 0 4.168 1.957 8.3 6.324 8.3 1.008.023 2.051-.133 2.668-.414"/><path d="m-99.121 342.886c2.075.152 3.176.61 4.102 1.559.719.734 1.098 1.664 1.098 2.746 0 2.582-2.371 4.652-5.45 4.652h-8.062v-.597h.324c.801 0 1.735-.383 1.735-1.403v-11.941c0-1.906-1.129-1.906-1.735-1.906h-.324v-.602l7.309-.003c3.429 0 5.316 1.242 5.316 3.598 0 2.609-2.293 3.574-4.313 3.898m-3.371-6.89v6.609h1.235c2.269 0 3.519-1.102 3.519-3.203 0-2.324-1.097-3.406-3.265-3.406zm0 7.328v5.793c0 1.609.512 2.066 2.18 2.066 2.004 0 3.52-1.648 3.52-3.894 0-2.532-1.543-3.965-4.122-3.965z"/><path d="m-140.597 338.746 2.301 6.41h-4.606zm.285-3.36-5.223 14.207c-.386 1.012-1.07 1.633-2.086 1.633h-.054v.617h5.008v-.617h-.219c-1.207 0-2.028-.387-1.504-1.941l1.199-3.321h5.184l1.297 3.621c.375 1.141-.114 1.657-1.352 1.657h-.144v.609h6.375v-.609h-.051c-.848 0-1.43-.446-1.828-1.575l-5.36-14.277-1.242-.003"/><path d="m-103.632 316.441.035 2.777s-.336.082-.441.114c-.102-1.215-.375-2.204-2.317-2.204h-2.605v5.129h2.238c1.098 0 1.394-.613 1.519-1.672h.446v4.286l-.446.008c-.066-1.023-.308-1.82-1.511-1.82h-2.246v4.504c0 1.308 1.129 1.308 2.32 1.308 2.145 0 3.137-.132 3.738-2.304.086.022.438.097.438.097l-.602 2.895h-9.734v-.481h.183c.747 0 1.438-.14 1.438-1.16v-9.84c0-1.015-.691-1.156-1.438-1.156h-.183v-.48h9.168"/></g></g></g></svg>