<svg id="Capa_1" enable-background="new 0 0 512 512" height="512" viewBox="0 0 512 512" width="512" xmlns="http://www.w3.org/2000/svg" xmlns:xlink="http://www.w3.org/1999/xlink"><linearGradient id="SVGID_1_" gradientUnits="userSpaceOnUse" x1="256" x2="256" y1="512" y2="0"><stop offset="0" stop-color="#00b59c"/><stop offset="1" stop-color="#9cffac"/></linearGradient><g><g><g><path d="m505.784 183.838-240.776-180.832c-5.336-4.008-12.68-4.008-18.016 0l-240.782 180.836c-3.886 2.846-6.21 7.382-6.21 12.158v301c0 8.284 6.716 15 15 15h482c8.284 0 15-6.716 15-15v-301c0-4.721-2.407-9.436-6.216-12.162zm-249.784-150.079 215.978 162.208-215.978 161.311-215.978-161.311zm226 448.241h-452v-256.075l217.024 162.093c2.661 1.988 5.818 2.982 8.976 2.982s6.314-.994 8.976-2.982l217.024-162.093zm-190.971-186.989c7.81-2.763 11.901-11.334 9.138-19.144-2.763-7.811-11.333-11.901-19.144-9.138-8.011 2.834-16.43 4.271-25.023 4.271-41.355 0-75-33.645-75-75s33.645-75 75-75 75 33.645 75 75c0 8.271-6.729 15-15 15s-15-6.729-15-15v-30c0-8.284-6.716-15-15-15h-30c-24.813 0-45 20.187-45 45s20.187 45 45 45c11.517 0 22.032-4.354 30-11.495 7.968 7.142 18.483 11.495 30 11.495 24.813 0 45-20.187 45-45 0-57.897-47.103-105-105-105s-105 47.103-105 105 47.103 105 105 105c12.011 0 23.796-2.015 35.029-5.989zm-20.029-99.011c0 8.271-6.729 15-15 15s-15-6.729-15-15 6.729-15 15-15h15z" fill="url(#SVGID_1_)"/></g></g></g></svg>